<?xml version="1.0" standalone="no"?>
<!DOCTYPE svg PUBLIC "-//W3C//DTD SVG 1.1//EN" "http://www.w3.org/Graphics/SVG/1.1/DTD/svg11.dtd">
<svg xmlns="http://www.w3.org/2000/svg">
<metadata>Generated by Fontastic.me</metadata>
<defs>
<font id="nodegeeks-icons" horiz-adv-x="512">
<font-face font-family="nodegeeks-icons" units-per-em="512" ascent="480" descent="-32"/>
<missing-glyph horiz-adv-x="512" />

<glyph unicode="&#99;" d="M210 272c36 0 65 30 65 66 0 36-29 65-65 65-36 0-65-29-65-65 0-36 29-66 65-66z m0 120c30 0 54-24 54-54 0-30-24-55-54-55-30 0-55 25-55 55 0 30 25 54 55 54z m46 120c-141 0-256-115-256-256 0-141 115-256 256-256 144 0 256 112 256 256 0 141-115 256-256 256z m0-495c-132 0-239 107-239 239 0 132 107 239 239 239 132 0 239-107 239-239 0-134-105-239-239-239z m109 332l0 69-11 0 0-69-69 0 0-11 69 0 0-69 11 0 0 69 69 0 0 11z m-89-91c-13 0-34 0-57 0-26 0-55-1-77-1-42 0-73-17-86-48l-1-2 0-2c9-32 25-62 47-87l10-10 0 14c-1 12-1 21-1 28 0 8 3 13 5 13 3 0 6-4 6-11 0-8 0-26 0-51l0-2 2-2c37-30 83-47 131-47 11 0 21 1 32 3l4 0 0 5c0 56 1 89 1 98 1 8 5 10 7 7 2-2 3-6 3-10 0-19 0-52 1-90l0-7 6 2c21 5 40 14 58 26l3 1 0 3c0 42 0 68 0 84-1 40-26 86-94 86z m83-167c-14-9-30-16-46-21 0 35-1 65 0 83 0 7-2 13-6 18-8 8-24 5-25-14-1-9-1-40-2-94-52-7-106 8-147 41 0 23 0 40 0 48 0 13-8 22-17 22-7 0-15-7-15-24 0-3 0-8 0-13-16 20-28 44-35 69 12 26 39 40 76 40 22 0 51 1 77 1 23 0 44 1 57 1 60 0 82-39 83-76 0-15 0-41 0-81z"/>
<glyph unicode="&#100;" d="M209 308c49 0 88 39 88 88 0 48-39 88-88 88-49 0-88-40-88-88 0-49 39-88 88-88z m0 161c41 0 74-33 74-73 0-41-33-74-74-74-40 0-73 33-73 74 0 40 33 73 73 73z m210-58l0 93-15 0 0-93-93 0 0-15 93 0 0-93 15 0 0 93 93 0 0 15z m-120-122c-18 0-47-1-78-1-35 0-74-1-103-1-57 0-99-23-117-65l-1-2 1-3c11-43 32-84 63-117l12-14 0 19c0 15 0 29 0 38 0 11 4 17 7 17 3 0 8-6 8-15 0-11 0-35 0-68l0-4 3-2c49-41 112-63 176-63 14 0 29 1 43 3l6 1 0 6c0 76 1 121 2 133 0 10 5 13 9 9 3-2 4-7 4-13-1-26-1-71 0-122l0-10 9 3c28 7 54 19 79 35l3 2 0 4c0 56 0 92 0 114-2 53-36 116-126 116z m111-226c-19-12-40-22-61-29-1 48-2 88-1 112 1 10-2 19-8 24-10 12-32 8-34-18-1-12-1-54-2-127-70-10-143 11-198 55 0 32-1 55-1 65 0 18-11 29-22 29-10 0-21-8-21-31 0-5 0-11 0-18-22 28-38 60-47 93 16 35 53 55 103 55 29 0 68 0 104 1 30 0 59 0 77 0 80 0 110-52 111-102 1-21 1-55 0-109z"/>
<glyph unicode="&#101;" d="M256 333c11 0 21-9 21-21 0-11-9-21-21-21-11 0-21 9-21 21 0 12 10 21 21 21m0 15c-19 0-36-16-36-36 0-20 16-35 36-35 19 0 36 15 36 35 0 20-17 36-36 36z m77 116c-8 28-37 48-71 48-10 0-20-2-30-4-25-8-42-37-40-58 1-18 16-32 34-32 4 0 8 1 12 2 12 5 22 19 16 39-1 2-1 3-2 5-2 2-3 6-3 8 6-1 11-9 14-21 3-16-4-26-10-39-9-17-20-37-10-64l1-3c4 2 8 3 13 3 6 0 10-1 16-4l-1 9c-2 18 8 26 27 39 18 14 45 32 34 72z m-77-112c-16 41 29 59 21 102-5 27-19 34-29 34-3 0-5-2-8-2-12-4-3-21 0-31 4-10 0-17-7-21-3-1-5-1-7-1-10 0-19 8-20 18-1 13 12 37 30 42 9 3 18 5 26 5 27 0 51-16 56-37 17-58-65-53-62-109z m49-100c10-38 12-70 4-99-7-30-16-54-27-72-3 30-4 66-4 93 0 7 0 14 0 19 2-2 6-4 9-5l13-8-2 15c-2 13-6 28-12 40 6 5 12 10 19 17z m-99 0l1 6c8-9 16-17 25-23-7-12-16-31-18-42l-4-14 14 6c5 4 11 7 14 9 0-6 0-14-1-23-1-30-2-68-4-98-14 19-25 46-34 80-4 29-3 61 7 99z m-130-55c27 7 45 10 78 13l3 0 2 2c6 7 17 17 30 26-6-33-6-63 0-88 11-47 28-79 48-100l11-11 1 15c3 32 5 80 6 116 1 20 1 35 2 42l1 23-14-17c-1-1-4-4-6-7 5 10 9 19 12 24l5 7-8 3c-7 4-13 7-19 13 16 2 42 1 62 0-5-6-11-9-17-13l-8-3 4-7c4-4 7-12 9-21-1 1-1 1-2 3l-16 18 2-22c0-8 1-21 1-38 1-34 2-82 5-114l1-18 11 14c18 21 33 52 43 94 6 27 6 56 0 88 13-9 23-18 30-26l2-2 3 0c33-3 51-7 78-13 5-19 12-54 19-91-47-56-118-91-196-91-81 0-153 37-201 97 7 34 13 66 18 84z m-21-104c50-56 122-93 204-93 79 0 149 33 199 87l12 14c-7 44-15 84-21 103l-1 5-4 1c-30 8-49 11-81 14-10 11-27 24-47 36 0 0-14 10-17 10-12 2-29 3-45 3-11 0-26 0-37-2-2 0-21-10-21-10-20-12-37-24-47-36-32-3-51-6-81-14l-4-1-1-5c-6-17-14-56-21-98z"/>
<glyph unicode="&#102;" d="M254 304c9 0 16-7 16-16 0-8-6-16-16-16-8 0-16 7-16 16 0 9 8 16 16 16m0 11c-14 0-27-12-27-27 0-15 12-27 27-27 15 0 27 12 27 27 0 15-12 27-27 27z m59 89c-6 21-28 36-54 36-8 0-16-2-23-3-19-6-32-28-31-44 1-14 13-25 27-25 3 0 5 1 9 2 9 4 17 14 12 30-1 1-1 2-2 4-1 2-2 4-2 6 4-1 9-7 10-16 3-12-2-20-7-30-7-13-15-28-8-49l1-2c3 1 6 2 10 2 4 0 8-1 12-2l-1 6c-1 14 7 20 21 30 14 11 34 24 26 55z m-59-85c-12 31 22 44 16 77-4 21-14 26-22 26-2 0-4-1-6-1-9-4-2-16 0-24 3-8 0-13-5-16-2-1-4-1-5-1-8 0-15 6-16 14-1 10 10 28 23 32 7 2 14 3 20 3 21 0 38-12 43-28 12-44-50-40-48-82z m37-77c8-28 10-53 4-75-6-23-13-41-21-55-2 23-3 50-3 71 0 5 0 10 0 15 2-2 4-4 7-5l10-5-2 11c-1 10-5 22-9 31 4 3 9 7 14 12z m-75 0l1 5c6-7 12-13 19-17-5-9-12-24-14-32l-2-11 10 5c4 2 8 5 11 7 0-6 0-11-1-18-1-23-2-52-3-75-11 15-19 35-26 61-3 22-2 47 5 75z m-99-42c21 6 34 8 60 10l2 0 2 2c4 5 12 13 23 19-5-24-5-47 0-66 8-36 21-60 36-76l8-9 1 12c2 24 4 61 4 88 1 15 1 27 2 32l1 18-11-14c-1-1-3-2-4-5 3 8 7 15 9 19l3 5-5 2c-6 3-11 5-15 10 12 1 32 1 48 0-5-5-9-7-14-10l-6-2 3-5c3-4 6-9 7-16-1 1-1 1-1 1l-12 15 1-17c0-6 0-16 0-29 1-26 2-62 5-87l0-13 9 10c13 16 24 39 32 72 5 20 5 42 0 66 10-6 18-13 23-19l2-2 2 0c25-2 39-5 59-10 4-14 9-40 15-69-36-42-90-69-149-69-62 0-117 28-153 74 5 25 9 50 13 63z m-16-78c38-43 93-71 156-71 60 0 113 25 151 66l9 11c-6 33-11 64-16 78l-1 4-3 0c-23 6-37 9-62 11-7 9-20 18-35 27 0 0-11 8-13 8-9 2-22 3-34 3-9 0-20 0-28-2-2 0-16-8-16-8-16-9-28-18-36-27-24-2-39-5-61-11l-4-1-1-3c-4-14-10-43-16-75z m155-122c-141 0-256 115-256 256 0 141 115 256 256 256 141 0 256-115 256-256-1-144-113-256-256-256z m0 495c-132 0-239-107-239-239 0-132 107-239 239-239 134 0 239 105 239 239-1 132-107 239-239 239z"/>
<glyph unicode="&#97;" d="M256 0c-141 0-256 115-256 256 0 141 115 256 256 256 141 0 256-115 256-256 0-144-112-256-256-256z m0 495c-132 0-239-107-239-239 0-132 107-239 239-239 134 0 239 105 239 239 0 132-107 239-239 239z m115-101l-36 0c1 9 1 18 1 23l-11 0c0-5 0-14-1-23l-139 0c1 9 1 18 1 23l-11 0c0-5 0-14-1-23l-34 0c-25 0-45-20-45-45l0-188c0-25 20-45 45-45l231 0c24 0 44 20 44 45l0 188c0 25-20 45-44 45z m-231-11l34 0c0-13 0-26 0-35l11 0c0 9 0 22 0 35l139 0c0-13 0-26 0-35l11 0c0 9 0 22 0 35l36 0c18 0 33-15 33-34l0-31-298 0 0 31c0 19 15 34 34 34z m206-76l0-52-54 0 0 52z m-65-52l-54 0 0 52 54 0z m0-11l0-52-54 0 0 52z m-65 11l-54 0 0 52 54 0z m-65 0l-45 0 0 52 45 0z m0-11l0-52-45 0 0 52z m11 0l54 0 0-52-54 0z m54-63l0-54-54 0 0 54z m11 0l54 0 0-54-54 0z m65 0l54 0 0-54-54 0z m0 11l0 52 54 0 0-52z m65 52l47 0 0-52-47 0z m0 11l0 52 47 0 0-52z m-251-94l0 20 45 0 0-54-11 0c-19 0-34 16-34 34z m265-34l-14 0 0 54 47 0 0-20c0-18-15-34-33-34z"/>
<glyph unicode="&#98;" d="M440 459l-56 0c1 15 1 28 1 38l-18 0c0-10 0-23 0-38l-222 0c0 15 0 28 0 38l-18 0c0-10 0-23 0-38l-55 0c-40 0-72-32-72-72l0-300c0-39 32-72 72-72l368 0c40 0 72 33 72 72l0 300c0 40-32 72-72 72z m-368-18l55 0c-1-21-1-41-1-55l17 0c0 14 1 34 1 55l222 0c0-21-1-41-1-55l18 0c0 14 1 34 1 55l56 0c30 0 54-24 54-54l0-50-476 0 0 50c0 30 24 54 54 54z m328-122l0-82-86 0 0 82z m-103-82l-86 0 0 82 86 0z m0-18l0-82-86 0 0 82z m-104 18l-86 0 0 82 86 0z m-104 0l-71 0 0 82 71 0z m0-18l0-82-71 0 0 82z m18 0l86 0 0-82-86 0z m86-100l0-86-86 0 0 86z m18 0l86 0 0-86-86 0z m103 0l86 0 0-86-86 0z m0 18l0 82 86 0 0-82z m104 82l76 0 0-82-76 0z m0 18l0 82 76 0 0-82z m-400-150l0 32 71 0 0-86-17 0c-30 0-54 24-54 54z m422-54l-22 0 0 86 76 0 0-32c0-30-24-54-54-54z"/>
<glyph unicode="&#103;" d="M256 0c-141 0-256 115-256 256 0 141 115 256 256 256 141 0 256-115 256-256 0-144-112-256-256-256z m0 495c-132 0-239-107-239-239 0-132 107-239 239-239 134 0 239 105 239 239 0 132-107 239-239 239z m179-195l0 5-107 0c3 3 7 7 11 10 10 8 21 16 21 29 1 10-6 21-19 32l-7-8c10-9 16-17 16-23 0-8-9-15-18-22-7-5-14-11-17-18l-88 0c-18 26-1 46 18 68 19 21 40 45 18 75l-9-6c17-23 1-41-17-62-18-21-39-45-23-75l-85 0 0-5c1-11 2-22 4-34-19 0-38-10-50-28-14-19-16-45-6-70 11-31 39-51 72-51 14 0 28 4 39 11 8-11 16-20 23-28l-37 0 0-11 216 0 0 11-36 0c46 39 84 138 81 200z m-286-172c-22 0-50 11-62 43-9 22-7 44 5 61 10 14 25 23 41 23 1 0 2 0 3 0 0-4 1-7 2-10-14 1-27-6-35-17-9-14-11-33-3-53 8-21 29-36 53-36 9 0 17 2 25 6 1-2 3-5 4-8-9-6-21-9-33-9z m4 22c-20 0-37 12-43 29-6 16-5 31 2 42 7 10 18 15 29 12 8-27 19-54 32-78-6-3-13-5-20-5z m76-50c-13 8-25 23-37 42 0 1-1 2-2 3-16 27-30 62-39 94-1 2-1 4-2 6-1 3-1 6-2 8 0 2-1 3-1 4-3 13-5 26-6 37l284 0c1-69-45-170-88-194z m32 256c-8-9-16-18-21-28l9-5c5 9 12 17 20 26 20 22 42 47 18 77l-8-6c17-22 5-39-18-64z m-60-269l162 0 0-10-162 0z"/>
<glyph unicode="&#104;" d="M506 308l0 7-147 0c4 4 9 9 15 13 14 11 29 23 30 41 0 13-9 28-28 44l-9-12c15-12 22-23 22-32 0-11-12-20-24-29-10-8-19-16-23-25l-122 0c-24 36-1 62 25 93 26 29 55 62 24 103l-12-9c24-31 2-56-23-85-25-28-53-61-31-102l-117 0 0-8c0-14 2-30 6-47-27 1-53-13-69-37-19-27-22-62-9-97 15-42 55-69 99-69 20 0 39 5 54 15 10-15 21-29 32-39l-52 0 0-15 298 0 0 15-50 0c64 53 115 190 111 275z m-393-237c-30 0-69 16-86 60-11 30-8 61 8 84 13 19 34 31 56 31 1 0 3 0 4 0 1-5 2-10 3-14-19 1-36-8-48-24-13-19-15-45-5-72 11-29 41-49 74-49 12 0 24 3 34 8 2-4 4-7 6-11-13-8-29-13-46-13z m6 31c-27 0-51 16-60 40-8 22-7 43 4 58 9 13 24 19 39 16 11-37 26-75 44-108-8-4-17-6-27-6z m104-69c-17 11-35 32-51 58 0 1-1 3-2 4-22 37-42 85-55 129 0 3-1 6-2 8-1 4-2 8-3 12 0 1 0 3-1 4-4 19-7 36-8 52l390 0c1-95-62-234-121-267z m45 352c-11-12-23-25-30-38l13-7c6 12 17 23 28 35 27 30 57 64 24 106l-11-9c23-30 6-53-24-87z m-84-369l224 0 0-15-224 0z"/>
<glyph unicode="&#105;" d="M379 237c-12 0-22 11-22 22 0 12 11 22 22 22 12 0 22-10 22-22 0-11-10-22-22-22z m0 33c-6 0-11-5-11-11 0-6 5-11 11-11 6 0 11 5 11 11 0 6-5 11-11 11z m-34 54c-13 0-22 11-22 22 0 12 10 22 22 22 12 0 22-10 22-22 0-11-10-22-22-22z m0 34c-6 0-11-5-11-11 0-6 5-11 11-11 6 0 11 5 11 11 0 6-5 11-11 11z m-86 4c-13 0-22 10-22 22 0 11 10 22 22 22 11 0 22-11 22-22 0-12-11-22-22-22z m0 33c-6 0-11-5-11-11 0-5 5-11 11-11 5 0 11 6 11 11 0 6-6 11-11 11z m-88-68c-13 0-22 10-22 22 0 12 10 22 22 22 11 0 22-10 22-22 0-12-10-22-22-22z m0 34c-6 0-11-5-11-11 0-6 5-11 11-11 6 0 11 5 11 11 0 6-5 11-11 11z m-37-119c-12 0-22 10-22 22 0 11 11 22 22 22 12 0 22-11 22-22 0-12-9-22-22-22z m0 33c-6 0-11-5-11-11 0-5 5-11 11-11 6 0 11 6 11 11 0 6-5 11-11 11z m125-115c-22 0-42 18-42 42 0 5 1 9 3 13l-118 147 154-118c1 0 3 0 4 0 23 0 42-18 42-42 0-24-20-42-43-42z m-91 137l64-80-1-3c-2-4-3-8-3-13 0-17 14-31 31-31 18 0 32 13 32 31 0 18-14 31-32 31-1 0-3 0-4 0l-2 0z m31-103c3-30 29-54 60-54 31 0 57 23 60 53 27-7 53-18 76-33-32-46-83-73-139-73-56 0-106 27-139 73 26 16 53 28 82 34m11 14c-39-7-76-23-107-45 31-51 89-86 154-86 65 0 122 35 154 86-30 21-65 36-102 44 0-2 0-3 0-5 0-28-22-50-50-50-27 0-49 22-49 50 0 2 0 3 0 6z m46-208c-141 0-256 115-256 256 0 141 115 256 256 256 141 0 256-115 256-256 0-144-112-256-256-256z m0 495c-132 0-239-107-239-239 0-132 107-239 239-239 134 0 239 105 239 239 0 132-107 239-239 239z m1-43c107 0 194-87 194-194 0-108-87-195-194-195-107 0-194 87-194 195 0 107 87 194 194 194m0 11c-113 0-205-92-205-205 0-114 92-206 205-206 113 0 205 92 205 206 0 113-92 205-205 205z"/>
<glyph unicode="&#106;" d="M409 231c-16 0-28 12-28 27 0 15 13 27 28 27 15 0 27-12 27-27 0-15-12-27-27-27z m0 41c-8 0-14-7-14-14 0-7 6-14 14-14 7 0 13 7 13 14 0 7-6 14-13 14z m-43 67c-16 0-28 13-28 28 0 14 13 27 28 27 14 0 27-13 27-27 0-15-13-28-27-28z m0 42c-8 0-14-6-14-13 0-8 6-14 14-14 7 0 13 6 13 14 0 7-6 13-13 13z m-108 5c-16 0-27 12-27 27 0 15 12 27 27 27 15 0 27-12 27-27 0-15-12-27-27-27z m0 42c-7 0-14-7-14-14 0-7 7-14 14-14 7 0 14 7 14 14 0 7-7 14-14 14z m-109-86c-16 0-28 13-28 28 0 15 13 27 28 27 14 0 27-12 27-27 0-15-12-28-27-28z m0 43c-8 0-14-7-14-14 0-8 6-14 14-14 7 0 13 6 13 14 0 7-5 14-13 14z m-46-149c-16 0-27 13-27 27 0 15 12 28 27 28 15 0 28-13 28-28 0-14-12-27-28-27z m0 42c-7 0-13-6-13-14 0-7 6-13 13-13 8 0 14 6 14 13 0 8-6 14-14 14z m156-144c-28 0-53 23-53 52 0 7 2 12 4 17l-147 184 192-148c1 0 3 0 5 0 29 0 53-23 53-53 0-29-25-52-54-52z m-114 170l80-99-2-4c-2-5-3-9-3-16 0-21 17-39 39-39 22 0 39 17 39 39 0 23-17 39-39 39-2 0-4 0-5 0l-3 0z m38-127c5-38 37-67 76-67 38 0 71 28 75 65 34-9 65-22 94-41-39-57-104-91-173-91-70 0-133 34-173 91 32 20 65 35 101 43m14 17c-48-9-94-29-133-56 39-64 111-107 192-107 81 0 152 43 192 107-37 26-80 45-127 55 0-2 0-4 0-7 0-34-27-62-62-62-35 0-62 28-62 62 0 3 0 5 0 8z m59 304c134 0 242-108 242-242 0-134-108-242-242-242-134 0-242 108-242 242 0 134 108 242 242 242m0 14c-141 0-256-115-256-256 0-141 115-256 256-256 141 0 256 115 256 256 0 141-115 256-256 256z"/>
<glyph unicode="&#107;" d="M329 431l0-52c-5 0-10 0-15 0-22 0-38-3-41-8-5-9-7-59-7-59l54 0 0-51-54 0 0-180-67 0 0 180-45 0 0 51 45 0 0 10c0 31 0 73 26 95 11 9 35 14 104 14m11 11l-11 0c-77 0-99-6-112-17-29-25-29-71-29-102l-45 0 0-73 45 0 0-180 89 0 0 180 53 0 0 73-53 0c1 17 3 35 4 41 4 2 13 4 32 4 5 0 10 0 14 0l12 0 0 74z m-84-442c-141 0-256 115-256 256 0 141 115 256 256 256 141 0 256-115 256-256 0-144-112-256-256-256z m0 495c-132 0-239-107-239-239 0-132 107-239 239-239 134 0 239 105 239 239 0 132-107 239-239 239z"/>
<glyph unicode="&#108;" d="M375 494l0-71c-7 0-13 1-20 1-30 0-51-5-56-12-7-12-9-80-9-80l73 0 0-69-73 0 0-245-91 0 0 245-62 0 0 69 62 0 0 14c0 42 0 100 35 128 15 13 48 20 141 20m15 15l-15 0c-105 0-135-8-152-23-39-34-39-97-39-139l-62 0 0-99 62 0 0-245 121 0 0 245 72 0 0 99-72 0c1 24 3 48 6 56 4 2 17 6 43 6 6 0 13 0 19 0l16-1 0 101z"/>
<glyph unicode="&#109;" d="M335 416c-1-33-1-238-1-304 0-12-5-28-14-28l-1 0c-14 2-19 17-17 43 4 34 7 57 8 90-16 9-24 30-24 55-1 45 21 116 49 144m12 27l-19-19c-32-30-54-105-53-151 1-28 10-48 24-60-1-25-3-44-6-69l-2-16c-4-43 15-52 27-54 1 0 1 0 2 0 16 0 25 20 25 39 0 67 0 271 1 304z m-112-24c6-25 12-54 14-106 1-18-12-33-30-38 2-62 3-108 4-152 1-22-5-39-19-39-16 0-21 20-20 41 2 41 5 88 8 150-18 5-34 19-32 38 5 52 8 73 14 105 2 0 3 0 5 0l0-95 18 0 0 96c5 0 10 0 14 0l0-96 18 0 0 96c3 0 4 0 6 0m8 12l-9-1c-1 0-2 0-4 0l-18 0c-4 0-9 0-14 0l-20 0c-1 0-2 0-3 0l-9-1-1-8c-6-34-10-55-15-107-2-19 11-37 32-46-2-33-4-62-5-87 0-20-1-38-2-55-1-11 0-32 12-44 5-5 12-8 19-8 8 0 15 2 20 7 8 9 11 22 11 42 0 43-1 86-4 144 19 8 31 27 30 46-4 53-10 82-15 109z m13-431c-141 0-256 115-256 256 0 141 115 256 256 256 141 0 256-115 256-256 0-144-112-256-256-256z m0 495c-132 0-239-107-239-239 0-132 107-239 239-239 134 0 239 105 239 239 0 132-107 239-239 239z"/>
<glyph unicode="&#110;" d="M433 257c-22 23-40 45-57 64-44 50-78 89-118 133l-5 4-4-5c-17-20-34-42-55-64-32-38-67-79-111-130l-8-10 12 0c8 0 19 0 31 0l0-144 269 0 0 143c17 0 30 0 41 0l13 0z m-225-141l0 105 84 0 0-105z m174 143l-6 0 0-143-73 0 0 115-106 0 0-115-67 0 0 145-6 0c-9 0-18 0-24 0 40 47 74 86 104 121 18 21 35 40 51 59 38-42 72-80 113-128 15-16 31-34 49-54-11 0-22 0-35 0z m-126-259c-141 0-256 115-256 256 0 141 115 256 256 256 141 0 256-115 256-256 0-144-112-256-256-256z m0 495c-132 0-239-107-239-239 0-132 107-239 239-239 134 0 239 105 239 239 0 132-107 239-239 239z"/>
<glyph unicode="&#111;" d="M500 222c-29 33-55 62-79 90-62 69-109 124-166 185l-6 6-5-7c-24-28-49-58-77-90-45-52-95-110-156-182l-11-13 17 0c10 0 26 0 43 0l0-202 376 0 0 200c24 0 43 0 58 0l18 0z m-314-198l0 147 118 0 0-147z m243 200l-8 0 0-200-102 0 0 162-149 0 0-162-93 0 0 204-8 0c-13 0-25 0-35 0 57 66 104 120 146 169 26 29 49 56 72 82 53-59 100-112 158-178 20-24 43-49 68-77-14 0-31 0-49 0z"/>
<glyph unicode="&#112;" d="M260 388c34 0 47-16 50-55 2-44-16-88-25-97l-11 0-1-15c-1-28 2-62 37-71 11-3 21-4 30-6 9-1 16-2 26-5 8-4 14-8 18-19l-245 0c2 11 8 15 17 19 9 3 16 4 27 5 8 2 17 3 30 6 34 9 38 43 37 71l-2 15-11 0c-8 9-28 53-25 97 1 39 15 55 48 55m0 17z m0 0c-47 0-62-32-65-70-3-53 23-113 37-113 1-34-4-50-25-56-24-7-37-3-57-11-22-8-27-24-29-48l279 0c-1 24-7 40-29 48-20 8-34 6-57 11-20 6-26 24-25 56 14 0 39 60 37 113-4 38-19 68-66 70z m252-257l-117 0-2 1c-2 1-5 2-7 5-18 10-31 11-45 14-6 1-12 1-17 3l-12 2 7 10c3 4 9 9 16 11 8 4 15 5 21 5 5 1 10 1 17 3 7 3 11 4 11 16-13 0-26 3-36 9l-9 4 7 8c8 9 13 35 15 68 2 35 18 54 50 54 33 0 49-18 51-54 3-32 8-59 15-68l7-8-9-4c-12-5-23-9-36-9 0-13 4-15 11-16 7-2 11-2 17-3 7-1 13-1 21-5 19-8 23-24 23-38z m-112 16l95 0c-1 9-6 13-13 16-6 3-12 4-17 4-6 1-12 1-19 3-20 6-22 18-22 40l0 8 8-2c3 0 5 0 7 0 8 0 15 2 22 4-9 18-13 50-14 68-1 27-11 38-36 38-24 0-34-11-35-38-2-18-5-50-14-68 7-2 14-4 22-4 2 0 4 0 7 0l8 2 0-8c1-22-3-34-22-40-8-2-14-3-19-3-3 0-7-1-10-3 13-1 26-4 46-15 2 0 5-1 6-2z m-281-16l-119 0 0 8c0 14 3 30 23 38 8 4 15 5 21 5 5 1 10 1 17 3 7 3 11 4 11 16-13 0-26 3-36 9l-9 4 7 8c8 9 13 35 15 68 2 35 18 54 50 54 33 0 49-18 51-54 3-32 8-59 15-68l7-8-9-4c-12-5-23-9-36-9 0-13 4-15 11-16 6-2 11-2 17-3 7-1 13-1 21-5 7-2 11-7 16-11l7-10-12-2c-8-1-15-2-21-3-15-3-27-5-39-13-2-1-3-4-6-5z m-103 16l97 0c1 1 4 2 5 4 15 10 29 12 45 15l1 0c-3 1-8 1-11 2-6 1-12 1-19 3-20 6-22 18-22 40l0 8 8-1c3 0 5 0 7 0 8 0 15 1 22 3-9 19-13 50-14 68-1 27-11 38-36 38-24 0-34-11-35-38-2-18-5-49-14-68 7-2 14-3 22-3 2 0 4 0 7 0l8 1 0-8c1-22-3-34-22-40-8-2-14-3-19-3-6-1-11-1-17-4-8-4-12-9-13-17z"/>
<glyph unicode="&#114;" d="M221 73c-69 0-109 36-111 71-1 15 6 32 18 45 21 21 54 34 93 36-4 7-5 17-3 24-36 3-68 21-77 46-9 24-8 50 3 72 10 20 27 35 47 42 14 10 46 15 93 15 23 0 45-1 61-2 6 0 12 0 17 0l10 0-6-9c-4-5-12-8-26-14-10-4-21-10-31-15 8-10 13-19 15-30 7-42-9-74-48-91 0-10 9-20 31-35 23-17 39-43 39-66 0-35-39-79-102-86-7-2-15-3-23-3z m10 141c-55 0-83-21-94-32-11-12-17-26-16-38 2-30 40-60 100-60 8 0 16 0 23 1 57 7 91 44 91 76 0 18-14 42-34 57-24 17-37 30-35 48l1 4 3 0c37 16 51 43 43 81-1 10-7 20-16 28l-4 5 5 4c11 8 26 15 38 20 3 1 4 2 7 3-16 1-38 2-59 2-46 0-75-4-87-13l-2-1c-18-6-33-20-41-37-10-19-10-41-3-62 9-23 39-39 74-39l9 0-4-8c-3-5-4-22 7-27l16-11z m2-113c-1 0-2 0-3 0-34 0-66 23-69 47 0 11 3 22 11 31 10 11 33 25 82 23l2 0 5-3c19-11 39-23 43-49 2-9-2-18-9-27-14-14-37-22-62-22z m11 90c-39 0-56-11-64-19-8-9-8-18-8-23 2-19 30-37 58-38 23-1 45 6 56 19 3 4 7 10 6 19-2 20-19 29-37 40l-2 2c-5 0-6 0-9 0z m-1 84c-19 0-44 14-53 31-9 17-12 40-5 59 3 12 10 19 19 24 6 3 13 4 19 4 24 0 44-20 53-51 10-31-6-60-21-66-4-1-7-1-12-1z m-20 107c-5 0-10-1-15-3-5-3-10-9-13-17-5-16-3-36 4-50 8-14 28-26 43-26 3 0 6 0 8 1 9 4 23 25 15 53-7 26-23 42-42 42z m33-382c-141 0-256 115-256 256 0 141 115 256 256 256 141 0 256-115 256-256 0-144-112-256-256-256z m0 495c-132 0-239-107-239-239 0-132 107-239 239-239 134 0 239 105 239 239 0 132-107 239-239 239z"/>
<glyph unicode="&#115;" d="M228 3c-100 0-157 52-161 102-1 22 9 46 27 66 29 30 77 48 134 51-6 11-7 24-5 35-52 4-97 31-111 66-13 35-12 72 4 104 15 29 39 51 68 61 21 14 66 21 134 21 33 0 65-1 88-2 10 0 18-1 24-1l15 0-9-12c-4-8-17-13-36-21-15-6-32-13-45-22 11-13 18-27 20-43 11-61-12-106-68-131 0-14 12-28 44-50 34-25 56-62 56-95 0-51-56-115-146-125-10-3-22-4-33-4z m13 203c-79 0-119-29-135-46-16-17-24-37-23-55 2-43 57-87 145-87 11 0 22 2 33 3 82 10 132 63 132 108 0 27-21 61-50 83-35 24-54 44-50 70l1 4 3 2c54 23 75 61 64 115-3 15-11 30-23 42l-6 6 7 6c16 12 36 22 55 29 3 2 6 3 10 5-24 1-55 3-86 3-66 0-108-6-125-20l-3-1c-25-9-47-28-59-52-14-29-15-60-4-91 12-33 56-56 106-56l13 0-6-12c-3-7-5-30 10-39l23-15z m4-163c-1 0-4 0-5 0-49 1-95 34-99 68-1 16 4 32 16 45 15 16 48 37 119 33l2 0 7-5c27-16 56-33 62-69 3-14-2-27-13-39-19-21-54-33-89-33z m16 130c-56 0-81-16-93-28-11-12-12-26-11-33 3-27 43-53 83-55 34-1 65 10 81 28 5 6 11 15 9 27-3 29-28 43-53 59l-4 2c-6 0-8 0-12 0z m-1 121c-28 0-64 20-77 45-13 24-17 58-7 85 4 17 14 28 26 34 10 5 20 6 28 6 35 0 64-28 77-73 14-45-10-86-30-95-6-1-11-2-17-2z m-30 155c-7 0-14-2-21-5-8-4-15-13-19-25-7-23-5-51 6-72 11-19 41-36 62-36 4 0 8 0 11 1 13 5 33 35 22 76-11 37-34 61-61 61z"/>
<glyph unicode="&#116;" d="M257 0c-12 0-22 5-29 11l-215 215c-16 16-16 42 0 58l154 154 65-65-3-4c-1-4-2-8-2-11 0-12 7-22 17-28l5-2 1-149-5-2c-11-5-18-16-18-28 0-15 14-29 30-29 15 0 29 14 29 29 0 12-7 23-17 28l-5 2-1 149 11 5 62-63-2-4c-3-3-3-8-3-13 0-15 14-29 30-29 16 0 29 14 29 29 0 16-13 30-29 30-4 0-7 0-9-1l-5-1-63 63 1 4c1 4 1 7 1 11 0 16-14 29-29 29-4 0-7 0-11-1l-4-1-66 64 50 50c16 16 42 16 58 0l215-215c16-16 16-42 0-58l-214-213c-7-9-17-14-28-14z m-90 418l-144-144c-10-10-10-26 0-36l215-215c11-11 28-11 37 0l214 213c10 11 10 27 0 37l-215 215c-11 10-28 10-37 0l-38-39 49-47c3 1 6 1 10 1 25 0 44-21 44-44 0-4 0-7-1-11l51-50c3 1 6 1 10 1 25 0 44-21 44-44 0-24-20-45-44-45-24 0-44 21-44 45 0 4 1 9 2 13l-41 40 1-119c14-8 22-23 22-39 0-24-21-44-44-44-24 0-44 21-44 44 0 16 9 31 22 39l-1 131c-14 8-21 23-21 38 0 4 1 9 2 12z"/>
<glyph unicode="&#117;" d="M255 68c-8 0-16 3-21 8l-160 161c-12 11-12 31 0 43l114 115 49-49-2-3c-1-3-2-6-2-8 0-9 5-16 13-21l3-1 1-112-3-2c-9-3-14-11-14-20 0-12 10-22 22-22 12 0 22 10 22 22 0 9-5 17-13 20l-3 2-1 112 8 3 46-46-1-4c-2-2-2-6-2-9 0-12 10-22 22-22 12 0 22 10 22 22 0 12-10 22-22 22-3 0-5 0-7-1l-3-1-48 47 1 4c1 2 1 5 1 7 0 12-10 22-22 22-2 0-5 0-7 0l-4-1-49 48 37 37c12 12 32 12 43 0l161-161c12-11 12-31 0-43l-160-159c-5-7-12-10-21-10z m-67 311l-107-107c-7-8-7-19 0-27l161-161c7-7 20-7 27 0l159 160c8 8 8 20 0 27l-160 161c-8 7-20 7-27 0l-29-29 36-35c3 0 5 0 8 0 19 0 33-15 33-33 0-2 0-5-1-7l38-38c3 1 5 1 8 1 18 0 33-16 33-33 0-18-16-33-33-33-18 0-33 15-33 33 0 3 1 6 1 10l-30 29 1-88c10-6 16-17 16-29 0-19-15-33-33-33-18 0-33 15-33 33 0 12 7 23 17 29l-1 98c-10 6-16 17-16 28 0 3 1 6 2 9z m68-379c-141 0-256 115-256 256 0 141 115 256 256 256 141 0 256-115 256-256 0-144-112-256-256-256z m0 495c-132 0-239-107-239-239 0-132 107-239 239-239 134 0 239 105 239 239 0 132-107 239-239 239z"/>
<glyph unicode="&#118;" d="M410 125l-308 0c-57 0-102 45-102 102l0 58c0 57 45 102 102 102l308 0c57 0 102-45 102-102l0-57c0-57-45-103-102-103z m-308 248c-49 0-88-40-88-88l0-57c0-49 40-88 88-88l308 0c49 0 88 40 88 88l0 57c0 49-40 88-88 88z m222-140c-15 0-28 12-28 28 0 15 13 28 28 28 15 0 28-13 28-28 0-16-13-28-28-28z m0 40c-7 0-13-5-13-13 0-8 5-13 13-13 7 0 12 5 12 13 0 8-4 13-12 13z m103-40c-16 0-28 12-28 28 0 15 12 28 28 28 15 0 27-13 27-28 0-16-12-28-27-28z m0 40c-7 0-13-5-13-13 0-8 5-13 13-13 6 0 12 5 12 13 0 8-4 13-12 13z m-50-87c-15 0-28 12-28 27 0 16 13 28 28 28 16 0 28-12 28-28 0-15-14-27-28-27z m0 40c-7 0-13-6-13-14 0-7 5-13 13-13 7 0 12 6 12 13 0 8-5 14-12 14z m0 52c-15 0-28 12-28 27 0 16 13 28 28 28 16 0 28-12 28-28-1-15-14-27-28-27z m0 39c-7 0-13-5-13-13 0-8 5-13 13-13 7 0 12 5 12 13 0 8-5 13-12 13z m-228-138l-51 0 0 53-53 0 0 51 53 0 0 53 51 0 0-53 53 0 0-51-53 0z m-36 16l22 0 0 53 53 0 0 22-53 0 0 53-22 0 0-53-52 0 0-22 53 0 0-53z"/>
<glyph unicode="&#119;" d="M376 158l-236 0c-43 0-77 35-77 78l0 44c0 44 34 78 77 78l236 0c43 0 78-34 78-78l0-43c0-44-35-79-78-79z m-236 189c-37 0-66-30-66-67l0-43c0-38 30-67 66-67l236 0c37 0 67 30 67 67l0 43c0 38-31 67-67 67z m170-106c-12 0-21 9-21 21 0 12 9 21 21 21 12 0 21-9 21-21 0-12-9-21-21-21z m0 30c-5 0-10-4-10-10 0-6 4-10 10-10 5 0 9 4 9 10 0 6-3 10-9 10z m79-30c-12 0-21 9-21 21 0 12 9 21 21 21 11 0 21-9 21-21 0-12-10-21-21-21z m0 30c-5 0-10-4-10-10 0-6 4-10 10-10 5 0 9 4 9 10 0 6-3 10-9 10z m-38-67c-12 0-21 10-21 22 0 11 9 21 21 21 11 0 21-10 21-21 0-12-10-22-21-22z m0 31c-5 0-11-4-11-10 0-6 5-10 11-10 5 0 9 4 9 10 0 6-4 10-9 10z m0 40c-12 0-21 9-21 21 0 12 9 21 21 21 11 0 21-9 21-21-1-12-10-21-21-21z m0 30c-5 0-11-4-11-10 0-6 5-10 11-10 5 0 9 4 9 10 0 6-4 10-9 10z m-174-106l-39 0 0 41-41 0 0 39 41 0 0 40 39 0 0-40 40 0 0-39-40 0z m-28 12l17 0 0 41 40 0 0 17-40 0 0 40-17 0 0-40-40 0 0-17 41 0 0-41z m107-211c-141 0-256 115-256 256 0 141 115 256 256 256 141 0 256-115 256-256 0-144-112-256-256-256z m0 495c-132 0-239-107-239-239 0-132 107-239 239-239 134 0 239 105 239 239 0 132-107 239-239 239z"/>
<glyph unicode="&#120;" d="M419 511l-38 0c-6 1-12 1-18 1l-1-1-269 0c-50 0-92-40-92-91l0-328c0-50 40-92 92-92l326 0c50 0 92 42 92 93l0 327c0 50-40 91-92 91z m-165-250c-2 4-6 9-8 16l-4 5c5 12 8 25 8 38 0 23-9 45-23 62l9 9c10 9 26 9 36 0l26-27c-17-40-36-84-44-103z m-45 113c14-14 23-35 23-55-1-44-37-80-81-80-44 0-81 36-81 81 0 44 37 80 81 80 21 0 39-7 53-20l0-1z m-44-153c15-11 72-53 89-53 7 0 21 9 136 104 3-2 4-8 4-12 0-7-2-14-7-18l-114-114c-9-10-26-10-36 0l-93 93c7-1 14 0 21 0z m227 76l0 0-3-2c-61-51-123-102-135-107-8 1-36 18-67 40 0 0 1 0 1 0 3 1 6 3 9 4 8 5 16 10 23 17 0 0 1 1 1 1 1 1 2 2 3 3 3 3 5 7 8 11 11-21 15-28 23-28 9 0 9 0 66 134 15 37 33 80 52 125l42 0c2 0 4 0 6 0 1-1 3-1 4-1 35-4 63-32 67-67 0-1 1-3 1-4 0-2 0-4 0-6l0-35-44-37c-18-15-38-31-57-48z m26-279l-327 0c-41 0-75 33-75 75l0 327c0 41 34 75 75 75l264 0c-17-40-33-79-48-113l-20 20c-16 16-44 16-61 0l-9-9c-17 16-41 25-66 25-54 0-99-44-99-98 0-40 24-74 58-90l1-1 114-114c8-8 19-12 30-12 11 0 23 4 29 12l114 114c9 9 13 20 13 31 0 9-3 17-8 25 17 14 36 30 57 49l33 28 0-269c0-42-33-75-75-75z"/>
<glyph unicode="&#121;" d="M256 0c-141 0-256 115-256 256 0 141 115 256 256 256 141 0 256-115 256-256 0-143-112-256-256-256z m0 495c-132 0-239-107-239-239 0-132 107-239 239-239 134 0 239 105 239 239 0 132-106 239-239 239z m99-84l-23 0c-4 1-8 1-12 1l0-1-164 0c-30 0-55-24-55-55l0-200c0-30 24-55 55-55l199 0c30 0 56 25 56 56l0 199c0 30-25 55-56 55z m-101-152c-1 3-3 6-5 10l-2 3c3 7 5 15 5 23 0 14-5 27-14 38l5 5c6 6 16 6 22 0l16-16c-10-25-22-51-27-63z m-27 69c9-9 14-21 14-34-1-26-22-48-49-48-27 0-49 22-49 49 0 27 22 49 49 49 12 0 24-5 32-12l0-1z m-27-93c10-7 44-32 54-32 5 0 13 5 83 63 2-2 3-5 3-7 0-5-2-9-5-11l-69-70c-6-6-16-6-22 0l-56 57c4-1 8 0 12 0z m138 46l0 0-2-1c-37-31-74-62-82-65-5 0-22 11-40 24 0 0 0 0 0 0 2 1 4 2 6 3 5 2 9 6 13 10 1 0 1 0 1 1 1 0 1 1 2 1 2 2 3 4 5 7 7-13 9-17 14-17 5 0 5 0 40 81 9 23 20 49 32 76l25 0c1 0 3 0 4 0 1 0 2 0 3 0 21-3 37-20 40-41 0-1 0-2 0-3 1-1 1-2 1-3l0-21-27-23c-11-9-23-19-35-29z m16-169l-199 0c-25 0-45 20-45 45l0 199c0 25 20 45 45 45l161 0c-10-24-21-48-29-68l-12 12c-11 10-27 10-38 0l-5-6c-11 10-25 16-40 16-33 0-60-27-60-60 0-24 14-45 35-55l0 0 70-69c5-5 11-8 18-8 7 0 14 3 18 8l69 69c5 5 8 12 8 19 0 5-2 10-5 15 10 8 22 18 34 29l21 17 0-163c0-25-21-45-46-45z"/>
<glyph unicode="&#122;" d="M374 469c-2-44-2-321-2-410 0-17-7-38-19-38l-1 0c-19 2-26 23-23 57 5 46 9 78 11 123-22 12-32 40-34 74-1 60 29 156 68 194m16 37l-26-25c-44-42-74-143-71-205 1-38 12-65 32-81-1-33-5-60-8-93l-3-21c-5-59 20-71 36-74 1 0 2 0 3 0 22 0 33 27 33 53 0 90 0 366 3 410z m-152-32c8-35 16-73 19-144 1-24-17-45-41-52 4-83 5-145 6-205 1-30-7-52-26-52-21 0-28 26-27 55 3 55 7 119 11 203-24 7-46 26-44 51 7 71 12 99 20 143 2 0 4 0 6 0l0-130 24 0 0 131c7 0 14 0 20 0l0-131 24 0 0 131c3 0 6 0 8 0m11 16l-12-1c-1 0-4 0-6 0l-24 0c-6 0-13 0-19 0l-27 0c-2 0-3 0-4 0l-12-2-2-11c-8-46-14-74-21-144-2-26 15-50 44-63-2-44-5-83-6-118-1-27-2-51-3-74-1-15 0-43 16-59 7-7 16-12 26-12 10 0 19 4 26 11 12 11 16 29 16 56-1 58-2 116-5 195 25 11 42 37 40 63-5 71-13 111-21 146z"/>
<glyph unicode="&#65;" d="M312 495c14 0 26-3 39-7 25-9 43-26 54-50 14-28 14-64 1-96l-10-26c11 8 28 15 36 6 3-3 5-8 3-14-2-20-20-28-37-28-10 0-18 4-25 8l-4 4-6 0c-17 0-51 1-89 1-57 1-130 2-186 2-9 0-10 8-10 11 0 8 4 18 20 21l18 2-6 17c-9 25-4 52 12 74 13 19 35 32 53 32 11 0 21-5 29-15l17-20 8 26c9 30 43 52 83 52m0 14c-44 0-84-23-97-62-11 14-26 19-40 19-48 0-101-62-79-126-44-4-42-60-8-60 95 0 232-4 275-4 9-8 22-12 34-12 24 0 49 14 52 42 3 27-14 41-28 35 21 63 0 138-66 160-14 6-29 8-43 8z m-181-258c37 0 93 0 146-1l70 0c9-7 20-11 31-14-38-71-71-131-115-205-54 88-94 153-132 220m-26 16c45-80 89-151 158-264 54 92 92 161 140 248-3 0-5 0-8 0-16 0-32 7-42 16-78-1-200 0-248 0z"/>
<glyph unicode="&#66;" d="M294 438c10 0 19-1 29-5 18-6 32-19 40-37 10-21 10-48 1-72l-7-19c8 6 21 11 27 4 2-2 3-6 2-10-2-15-15-21-28-21-7 0-13 2-18 6l-4 2-4 0c-13 0-38 1-67 1-43 1-97 2-139 2-7 0-8 6-8 8 0 6 4 14 15 16l14 1-4 13c-7 19-4 39 8 56 10 14 26 23 40 23 8 0 16-3 22-11l13-15 6 20c6 22 32 38 62 38m0 11c-33 0-63-17-73-46-8 10-19 14-30 14-36 0-75-46-59-94-33-4-31-45-6-45 71 0 174-3 206-3 7-6 16-9 25-9 18 0 37 10 39 31 3 21-10 31-21 27 16 47 0 103-49 120-11 4-22 5-32 5z m-136-193c28 0 70 0 110-1l52 0c7-5 15-8 23-10-29-53-53-98-86-154-41 66-70 115-99 165m-19 12c33-60 66-113 118-198 40 69 69 121 105 186-2 0-4 0-6 0-12 0-24 5-32 12-58-1-149 0-185 0z m117-268c-141 0-256 115-256 256 0 141 115 256 256 256 141 0 256-115 256-256 0-144-112-256-256-256z m0 495c-132 0-239-107-239-239 0-132 107-239 239-239 134 0 239 105 239 239 0 132-107 239-239 239z"/>
<glyph unicode="&#67;" d="M361 411l-206 0c-22 0-40-18-40-40l0-229c0-22 18-40 40-40l206 0c22 0 39 18 39 40l0 229c0 22-17 40-39 40z m0-298l-206 0c-16 0-29 13-29 29l0 131 54 0c-1-5-2-10-2-15 0-44 36-80 80-80 44 0 79 36 79 80 0 5 0 10-1 15l53 0 0-131c0-16-12-29-28-29z m-172 144c0 38 32 68 69 68 37 0 68-30 68-68 0-38-31-69-68-69-38 0-69 31-69 69z m200 27l-56 0c-11 31-41 53-75 53-35 0-64-22-75-53l-57 0 0 87c0 16 13 29 29 29l206 0c16 0 28-13 28-29z m-69 30l63 0 0 63-63 0z m11 52l41 0 0-41-41 0z m-75 146c-141 0-256-115-256-256 0-141 115-256 256-256 144 0 256 112 256 256 0 141-115 256-256 256z m0-495c-132 0-239 107-239 239 0 132 107 239 239 239 132 0 239-107 239-239 0-134-105-239-239-239z"/>
<glyph unicode="&#68;" d="M426 510l-340 0c-36 0-65-29-65-65l0-378c0-36 29-65 65-65l340 0c36 0 65 29 65 65l0 378c0 36-29 65-65 65z m0-490l-340 0c-26 0-47 21-47 47l0 216 89 0c-2-8-3-16-3-25 0-72 59-131 131-131 72 0 131 59 131 131 0 9-1 17-3 25l89 0 0-216c0-26-21-47-47-47z m-283 237c0 62 52 112 113 112 61 0 113-50 113-112 0-63-52-113-113-113-63 0-113 50-113 113z m330 44l-94 0c-17 51-66 88-123 88-57 0-106-37-123-88l-94 0 0 144c0 26 21 47 47 47l340 0c26 0 47-21 47-47z m-114 50l103 0 0 103-103 0z m18 85l67 0 0-67-67 0z"/>
<glyph unicode="&#69;" d="M303 68l-190 191 190 190 8-9-182-181 182-182z m-47-68c-141 0-256 115-256 256 0 141 115 256 256 256 141 0 256-115 256-256 0-144-112-256-256-256z m0 495c-132 0-239-107-239-239 0-132 107-239 239-239 134 0 239 105 239 239 0 132-107 239-239 239z"/>
<glyph unicode="&#70;" d="M377 4l-252 252 252 252 10-12-241-240 241-240z"/>
<glyph unicode="&#71;" d="M7 0l133 147-66 0 152 154-95 5 196 199 178 7-179-167 108-2-192-154 100 1z m108 164l64 0-85-95 179 103-81-2 195 157-104 2 174 164-122-6-163-165 95-5z"/>
<glyph unicode="&#72;" d="M118 103l78 86-39 0 90 91-56 2 115 117 104 4-105-98 63-1-112-90 58 1z m64 96l37 0-50-55 105 60-48-1 114 92-60 1 102 96-72-3-95-98 55-2z m74-199c-141 0-256 115-256 256 0 141 115 256 256 256 141 0 256-115 256-256 0-144-113-256-256-256z m0 495c-132 0-239-107-239-239 0-132 107-239 239-239 134 0 239 105 239 239 0 132-107 239-239 239z"/>
<glyph unicode="&#73;" d="M187 124l-68 0 0 195 68 0z m-57 11l47 0 0 173-47 0z m274-13l-69 0 0 110c0 21-8 30-26 30-17 0-25-16-25-26l0-114-71 0 0 134c0 7 0 15 0 22 0 14 0 27 0 38l0 6 67 0 0-17c10 9 27 21 52 21 46 0 73-32 73-86l0-118z m-59 10l48 0 0 107c0 48-23 75-62 75-32 0-49-21-52-28l-9-15 0 38-45 0c0-10 0-21 0-33 0-7 0-14 0-21l0-123 50 0 0 103c0 18 13 38 36 38 16 0 36-7 36-42l0-99z m-190 203c-11 0-21 4-29 11-7 7-10 16-10 26 0 10 3 20 10 27 7 7 18 10 29 10 23 0 39-15 40-37 0-22-17-37-40-37z m1 64c-9 0-16-2-21-8-6-5-7-11-7-19 0-7 2-13 7-18 5-5 12-9 21-9 17 0 28 11 28 26 0 17-12 28-28 28z m100-399c-141 0-256 115-256 256 0 141 115 256 256 256 141 0 256-115 256-256 0-144-112-256-256-256z m0 495c-132 0-239-107-239-239 0-132 107-239 239-239 134 0 239 105 239 239 0 132-107 239-239 239z"/>
<glyph unicode="&#74;" d="M126 4l-120 0 0 346 120 0z m-101 20l83 0 0 307-83 0z m486-23l-123 0 0 195c0 38-14 54-45 54-32 0-45-28-45-46l0-203-126 0 0 237c0 14 0 27 0 39 0 25 0 48 0 67l0 11 118 0 0-30c18 16 48 37 93 37 81 0 129-57 129-152l0-209z m-105 18l85 0 0 189c0 85-40 133-109 133-57 0-87-37-93-49l-17-27 0 67-79 0c0-18 0-37 0-58 0-12 0-25 0-37l0-218 88 0 0 183c0 32 24 66 65 66 28 0 63-12 63-73l0-176z m-337 360c-20 0-38 7-51 19-12 12-18 29-18 47 0 18 6 34 18 46 12 14 31 20 51 20 40 0 69-27 70-66 0-39-30-66-70-66z m1 114c-15 0-28-5-37-15-9-9-12-20-12-33 0-14 4-24 12-33 9-9 22-15 37-15 30 0 51 19 51 46-1 30-22 50-51 50z"/>
<glyph unicode="&#75;" d="M415 141l-59 19c7 7 9 14 8 19-1 14-16 26-41 35l27 11-5 11-39-17c-7 2-14 4-21 5 20 22 41 47 53 66 10 17 16 36 16 56 0 57-46 103-104 103-57 0-104-46-104-103 0-20 6-38 16-55 11-17 31-42 52-65-16-1-30-4-42-7l-55 17-3-11 41-13c-11-7-17-14-17-24-1-8 4-19 25-30l-59-26 5-10 69 29c25-8 57-14 89-14 31 0 59 5 77 14l67-21z m-62 36c1-6-4-10-9-13l-79 25 40 17c31-8 47-21 48-29z m-88 25c3 3 6 6 10 10 3 0 6-1 10-2z m-107 144c0 51 41 92 92 92 52 0 93-41 92-92 0-16-5-34-14-49-17-26-54-67-77-91-6 7-12 13-19 20l-1 1-2 0c-22 25-45 52-57 70-9 15-14 32-14 49z m66-131c6-6 13-13 18-19l-50 16c10 2 21 3 32 3z m-75-27c0 6 8 13 22 18l60-19-55-23c-18 7-27 16-27 24z m118-40c-26 0-52 3-74 10l55 24 80-26c-16-5-37-8-61-8z m-16 122c-41 0-74 33-74 74 0 40 33 73 74 73 40 0 73-33 73-73 0-41-33-74-73-74z m0 136c-34 0-62-28-62-62 0-34 28-62 62-62 34 0 62 28 62 62 0 34-27 62-62 62z m5-406c-141 0-256 115-256 256 0 141 115 256 256 256 141 0 256-115 256-256 0-144-112-256-256-256z m0 495c-132 0-239-107-239-239 0-132 107-239 239-239 134 0 239 105 239 239 0 132-107 239-239 239z"/>
<glyph unicode="&#76;" d="M499 30l-92 30c12 11 14 22 13 30-3 21-26 40-65 54l42 18-7 17-62-26c-10 3-21 5-33 7 32 34 65 74 84 103 15 26 25 56 25 87 0 89-73 162-163 162-89 0-162-73-162-162 0-31 9-60 25-86 18-27 49-65 81-100-25-3-47-7-66-13l-85 28-6-18 65-21c-17-9-27-21-27-36-1-13 6-30 39-47l-92-40 7-17 109 47c39-14 89-23 139-23 49 0 91 7 119 23l106-34z m-97 56c2-8-6-15-14-20l-123 39 62 27c49-13 74-33 75-46z m-137 39c5 5 10 11 15 16 5-1 10-1 16-2z m-167 226c0 79 64 144 143 144 81 0 146-65 144-144 0-26-8-54-22-77-26-41-84-105-120-142-10 10-19 20-29 30l-3 3-2 0c-35 38-71 81-89 109-14 23-22 49-22 77z m103-205c10-10 19-20 29-30l-79 25c15 3 32 5 50 5z m-118-43c0 10 13 22 35 30l94-30-86-37c-28 11-43 25-43 37z m185-62c-41 0-82 6-116 16l87 37 124-40c-25-8-58-13-95-13z m-25 191c-64 0-115 52-115 115 0 63 51 115 115 115 63 0 115-52 115-115 0-63-52-115-115-115z m0 211c-53 0-97-43-97-96 0-53 44-96 97-96 53 0 96 43 96 96 0 53-42 96-96 96z"/>
<glyph unicode="&#77;" d="M256 1l-5 4c-57 57-133 143-167 196-20 32-31 69-31 108 0 111 91 202 203 202 112 0 203-91 203-202 0-39-11-76-32-109-36-58-122-149-166-195z m0 497c-104 0-189-85-189-189 0-36 10-71 29-101 31-51 104-132 160-188 45 46 125 132 160 187 19 31 29 66 29 102 0 104-85 189-189 189z m151-137c1 1 1 1 1 2l0 0 0 0c1 1 1 3 2 5 0 4 0 8 0 10 0 3-1 7-2 10-1 3-3 7-5 9-1 2-3 3-4 4 0 1-1 2-1 2-1 1-2 2-3 3-2 2-4 3-7 5-4 1-7 2-11 2-2 3-5 6-8 9-30 30-70 46-112 46-43 0-83-16-113-46-2-3-5-5-7-7 0 0-1 0-2 0l0 0c0 0-1 0-1 0-3 0-6-1-9-2 0 0 0 0 0 0 0 0-1 0-1 0 0 0-1 0-2 0l0 0 0 0c-1 0-3 0-4-1-1-1-2-1-3-2-2-1-2-2-3-3l0 0c-2-2-4-4-6-6-1-2-2-5-4-7-2-5-3-11-4-15 0-3 0-5 1-8l0 0 0 0c0-2 1-4 2-5 0-1 0-1 0-1 0 0 0-1 0-1 0-1-1-2-1-3 0-1 0-2 1-3l0 0c0-3 1-5 2-7-4-13-6-28-6-42 0-43 17-83 47-113 30-30 70-46 113-46 42 0 82 16 112 46 30 30 47 70 47 113 0 18-3 36-9 52z m-260 58c29 29 68 45 110 45 41 0 80-16 109-45 2-2 4-4 6-6-1 0-2 0-3 0-2 0-3 0-4-1-1 0-1 0-1 0l-1 0 0 0c0 0-1 0-2 0 0 0 0 0 0-1l0 0 0 0-1 0 0 0-1 0-1 0-1-1 0 0 0 0-1 0c0 0 0 0-1-1l-2-1 0 0 0 0-1 0c-1-1-3-2-4-3-3-2-6-5-8-8l0 0-1 0c-2-3-4-6-5-10-1-2-1-4-1-6l0 0-1 0c0-2 0-3 0-5l0-10c1-1 1-1 1-2 0-1 0-1 0-2 0-3 1-5 1-7 0-4 0-7-1-9 0-1 0-1 0-2 0 0 0 0 0 0-2 0-2-1-3-2 0-2 0-4 1-5l0-1 0 0c0 0 0 0 0 0l0 0 1 0 0-1c0 0 0 0 1-1l0 0c0 0 1 0 1-1 1-1 3-2 4-3 1 0 3-1 4-2 0 0 0 0 0 0-1 0-3-1-4-1l0 0 0 0c-1 0-2 0-2 0-1-1-2-1-3-1-4-1-8-3-11-6-1-2-2-4-3-5l0 0 0 0 0 0c0 0-1-1-1-1-3 2-6 4-8 6-3 1-6 2-8 4-4 2-8 3-11 4-1 3-2 6-3 8-1 1-2 2-2 3-1 1-1 1-1 1 0 1 0 1 0 2 0 1 0 2 0 3 1 0 1 1 2 1 1 1 2 3 3 5l0 0 0 0c0 1 1 3 1 5 0 0 0 1 0 1 0 0 1 0 1 1l0 0 0 0c2 1 3 3 4 4l0 0 0 0c2 3 3 5 3 7l0 0 0 0c1 2 1 3 1 5 0 0 0 1 0 1l0 0c0 1 0 2 1 3 0 0 0 1 0 2l0 0c0 1 1 2 0 3 0 1 0 3-1 4-1 2-2 3-4 4 0 2 0 5 0 8 0 4 0 7 0 10-1 4-1 7-2 10 0 2-1 4-2 6 0 2-1 3-2 4 0 0-1 1-1 1l0 0c-1 1-1 1-2 1-2 3-5 5-9 7-4 2-8 3-11 5l0 0 0 0 0 0c-1 0-2 0-3 0-1 1-2 1-3 1l0 0 0 0 0 0c-2 0-3 0-4 0-1 0-2 0-3 0-4-1-8-1-12-3-4-1-8-3-11-5-2-1-3-2-5-3-2-2-3-3-4-5l0 0 0 0c-3-4-4-8-5-12l0 0 0 0c0-3-1-6-1-10 0-3 0-6 0-9 0-2 1-4 1-6-2-1-4-3-5-5 0-1 0-2 0-4 0 0 0-1 0-2 0-1 0-2 1-2 0-1 0-2 0-3l0 0c0 0 0-1 0-1 0-2 1-3 1-5 1-3 2-5 3-6l0 0c1-2 2-3 3-5l0 0 0 0c1 0 2-1 3-1 0-2 0-4 1-6 0 0 0-1 0-1l0 0 0 0 0 0 0 0c1-1 1-1 1-2l0 0c1 0 1-1 2-2l0 0 0-1 0 0c0 0 1 0 1 0 0-1 0-3 0-4 0-1-1-2-2-2l0 0 0 0c-1-2-1-3-2-5l0 0-1 0c0-1-1-3-2-5l0 0 0 0c0 0 0 0 0 0-4-2-7-3-11-5-3-1-6-3-8-5-3-1-5-3-7-5l-2 0c0 0 0 0 0 0l0 0c0 0 0 1-1 1 0 0 0 0 0 0 0 0 0 0 0 0 0 0 1 1 1 2 0 0 0 1 1 2l0 0 0 0c0 1 0 2 0 3l0 0 0 0c0 1 0 2-1 3 0 1 1 2 1 3 0 1 0 1 0 2l0 0 0 0c0 0 0 0 0 0l0 0c0 0 0 0 0 0 0 1 0 1 0 2 1 1 1 2 1 4l0 0c0 1 0 3 0 4 0 0 0 0 0 1l0 0c0 2-1 3-3 4l0 0c0 0 0 1 0 1l0 0 0 0c0 0 0 0 0 0l0 0 0 1 0 0 0 1 0 1-1 0 0 2 0 1 0 1-1 1 0 1 0 0 0 0c0 1 0 2-1 3l-2 1-2 0c0 0 0 0 0 0 0 0-1 1-1 1l0 0 0 0c-1 1-3 3-3 4-3 3-5 7-7 12-2 3-4 6-5 9-1 1-1 3-2 4-2 5-5 9-8 13-1 1-1 3-2 4-2 1-3 2-4 3l0 0 0 0c-3 2-5 3-8 4-1 0-2 1-3 1 2 1 3 3 5 5z m-46-112c0 1 0 1 0 2 0 0 0 1 0 1 0-1 0-1 1-2 0 0-1-1-1-1z m1 5c0-1-1-1-1-2 0 6 1 12 1 17 0 0 0 0 0 0 1-1 1-2 1-3l0-1c0 0 0-1 0-1l0 0 0 0 0 0c0-1 1-1 1-2 0 0 0 0 0 0 0-1-1-1-1-2l0 0 0 0c0 0 0-1 0-1l0 0 0 0c0-1 0-1 0-1 0-1 0-2-1-3l0-1 0 0z m1 19c1 5 2 10 3 15 1-1 2-2 3-4 0 0 0 0 0 0l0 0c0-1 0-3 0-4-1-1-1-3-2-4 0 0 0 0 0 0 0 0 0 0 0 0-2 0-3-1-4-3z m14-90c-9 17-14 36-15 55 1-1 1-2 2-3 0 0 1 0 1 0 0-2 0-4 0-5 1-4 2-8 3-10l0 0c1-1 1-2 1-3 0-1 0-1 0-2 1-1 1-2 1-3 1-2 1-5 2-7 0-1 1-1 1-2 0 0 0 0 0 0 1-3 2-7 3-10 0-2 1-3 1-4 0-2-1-5 0-6z m284 11c0-1 0-1 0-1 0 0 0 0 0 0 0 0 0 0 0 0 0 0 0 0 0 0 0 0 0 0 0 0-1-3-2-5-3-7 0 0 0 0 0 0 0 0 0 0 0 0-1-1-1-1-1-2 0 0 0 0 0 0-1-2-2-4-4-6 0-1 0-1 0-1 0-1-1-2-1-3 0 0 0 0 0 0-1 0-1 0-1 0 0 0 0 0 1 0-1 1-1 2-1 3 0 1 0 2 0 3 0 1-1 2-1 3 0 1-1 2-1 3-1-5-2-9-3-14 1 0 1 0 1 0 0 0 0 1 0 0 0 0 0 0 0 0 0 0 0-1 0-1 0 0 0-1 0-1 0-1 0-2 0-3 0 0 0 0 0 0-6-9-13-18-21-26-29-29-68-45-109-45-42 0-81 16-110 45-11 11-20 23-27 35 1 2 1 3 1 5 0 1 1 2 1 3 0 1 0 2 0 2 0 1 0 2 0 2 0 3-1 6-2 8 0 3-1 6-2 9-1 2-2 5-3 8 0 2 0 3-1 5 0 1 0 3-1 4-1 3-2 6-2 9-1 2-1 4 0 7-1 0-2 1-4 2 0 0-1 1-1 2-1 0-1 0-1 1l0 0c0 0 0 0 0 0l0 0 0 0 0 1 0 0c1 1 1 2 1 3 0 0 0 0 1 1l0 0c0 0 0 0 0 0l0 0 0 0 0 0c1 0 1 0 2 0 1 0 2 1 3 1 0 0 0 0 0 0-1 1-3 1-4 2 0 0-1 0-1 1l0 0c0 0 0 0 0 0l0 0 0 1 0 1c1 1 1 2 1 3 0 0 0 1 0 1l0 0 0 1c0 0 0 0 0 0l1 0 0 0 0 0 0 0 0 0c1 0 1 1 1 1 2 1 3 2 4 3-1 0-1 0-2 0-1 0-1 0-1 0-1 1-1 1-2 1 0 0 0 0 0 0 0 0 0 0 0 0-1 1-1 1-1 1 0 0 0 1 0 1 0 2 0 3 0 5 0 0 0 0 0 0 0 0 0 0 0 0 0 0 0 0 0 0l1 0c0 0 0 0 0 0 0 0 0 0 1 0 1 1 1 2 2 2 1 2 2 4 2 6 0 2 0 4 0 5 0 1 0 2 0 3-2 2-3 4-5 6-1 2-3 5-3 8 0 0 0 1 0 2 0 1 0 1 0 2 0 1 0 1 0 2 0 1 0 1 0 2 0 0 0 0 0 1l0-1c-1 2-2 3-2 5 0 2-1 4 0 6 0 4 1 9 3 14 1 2 2 4 4 6 1 2 3 4 4 5 1 1 2 2 3 3 1 0 2 1 2 1 1 1 2 1 3 1 1 0 1 0 1 0 1 0 1 0 2 0 0 0 0 0 0 0 0 0 1 0 1 0 2 1 5 2 8 2 3-1 5-1 8-2 2-1 5-2 7-4 1 0 2-1 3-2 1-1 1-2 2-3 3-3 5-8 7-12 2-5 4-9 7-14 2-4 5-9 7-12 2-2 3-4 4-5 2-1 3-2 4-2l0 0 1 0 0 0c0 0 0 0 0 0l0 0 0-1c0 0 0 0 0-1 1-1 1-1 1-2 0-1 0-2 0-3 1 0 1 0 1-1l0 0 0-1c0 0 0 0 0 0l0 0 0 0 0 0c-1 0-1-1-2-1 1 0 2-2 3-3 0 0 1 0 1 0 0 0 0-1 0-1l1 0c0 0 0 0 0 0l0 0c0 0 0-1 0-1 0-1 0-2 0-3 0-1-1-2-1-2 0-1 0-1-1-2 0 0 0 0 0 0l0 0c0 0 0 0 0 0 0 0 0 0 0 0 0 0-1 0-1 0-1 0-2 0-2 0 0-1 1-1 1-2 1 0 1 0 2 0l0-1 0 0 0 0c0 0 0 0 0 0l0 0c0 0 0-1 0-1 0-1 0-2 0-3 0-1-1-1-1-2 0 0 1 0 1-1 0 0 1 0 1 0 0-1 0-1-1-1 0-1 0-2 0-2-1-2-1-3-2-4 0-1 0-1 0-1 0 0 0-1 0-2 0 0 0 0 0 0 0 0-1-1-1-1 0 0 0 0 0 0 0 0 1 0 1 0 0 0 0 1 0 1l1 0 1 0 0 0c0-1 0-1 0-1 1 0 1-1 2-1 0 0 1 0 1-1l0 0c0 0 0 0 1 0l0 0c0-1 0-2-1-3 0-1 0-2-1-2-1-1-1-1-2-1 0 0 0 0 0 0l-1 0c0 0 0 0 0 0l1 0 0 1c0 0 0 0 0 0 0 0 0 0 0 0 0 1-1 2-1 2-1 0-2-1-3-1 0 0 0 0-1 0l0 0 0 0c0 0 0 0 0 0 0 0 0 0 0 0 0 0-1-1-1-1 0-1 0-2 0-3 0-1 0-2-1-3 0 0 0-1 0-1l0 0c0 0 0 0 0 0l0 0-1 0 0 0c0 0 0 0-1 0-1 0-2 0-3 1 1-6 3-12 4-17 1-4 1-6 2-9 0-2 1-3 1-5 1 3 1 5 1 7 2 7 3 13 5 19 0 1 0 2 0 3 1 0 1 1 1 2 0 1 1 1 1 2 0 0 0 1 1 1l0 1c2 3 4 5 6 8 2 2 4 3 7 5 2 2 5 3 7 4 5 2 9 4 13 6 0 1 0 1 1 2 0 2 1 3 2 5 1 1 2 2 3 3 1 2 1 3 3 4l0-1c-1 4-1 7-1 9-1 1-1 1-1 1 0 0-1 1-1 1l0 1c-1 0-1 1-1 1-1 0-1 1-1 1 0 0 0 1 0 1-1 2-1 5-1 7 0 0 0 1 0 1-1 0-2 0-2 0-1 0-1 1-2 1-1 1-2 2-3 4-1 1-2 3-2 4 0 2 0 4-1 6 0 2 0 3-1 5 0 1 0 1 0 2 0 0 0 1 0 1 1 1 1 2 2 2 1 0 1 0 2 0 0 0 0 0 1-1 0 0 1-1 1-1 0 0 0 0 1 0-1 1-1 3-2 6 0 2 0 5-1 7 0 3 0 6 0 9 1 3 1 6 2 9 0 4 1 7 3 10 1 1 2 3 3 4 2 1 3 2 5 3 3 2 6 3 10 4 3 1 7 2 10 3 2 0 4 0 6 0 1 0 2-1 3-1 0 0 1 0 2-1 4-1 7-2 10-4 3-2 6-4 9-6 0 0 1 0 1-1 0 0 1 0 1-1 1 0 1-1 1-2 1-1 2-3 2-5 1-3 1-6 1-9 1-4 1-7 1-10 0-3 0-6 0-8 0-2-1-3-1-4 0-1 0-2 0-3 0 0 0 1 1 1 0 0 1 1 1 1 0 0 0 0 1 0 0 0 0 0 0 0 0 0 0 0 0 0 1 0 2-1 3-2 0 0 0-1 0-1 0-1 0-1 0-2 0-1-1-3-1-5-1-2-1-4-1-6 0-1-1-3-2-5-1-1-2-2-3-3-1-1-1-1-2-1-1 0-1 0-1 0 0-1 0-3 0-5-1-1-1-2-1-3-1-1-1-2-2-3-1-1-2-2-3-3l0 0c0-1 0-3 0-5 0-1 0-2-1-3 1-1 1-1 1-1 1-1 1-1 1-2 1 0 1-1 2-3 1-2 2-4 4-7 0-1 0-1 0-2 3-1 8-3 12-5 3-1 5-3 8-4 3-2 6-3 8-6 2-1 3-3 5-5 0 2 1 3 2 5 0 1 1 2 2 3 0 2 1 3 2 4 2 2 5 4 8 5 2 0 3 0 5 1 2 0 3 1 5 1 1 1 2 1 2 1 1 0 1 1 1 1 2 1 4 2 6 3 1 0 2 1 3 2-3 0-7 1-12 3-1 1-2 1-3 2-1 1-3 1-4 2 0 1 0 1-1 1 0 0 0 1 0 1l-1 0 0 0 0 1c0 0 0 0 0 0 0 0 0 0 1 0 0 0 0 0 0 0 0 0 0 0 1 1 0 0 0 1 1 2 0 0 0 1 0 2 1 3 1 6 1 10 0 3-1 6-1 10 0 1 0 3 0 4l-1 1 1-1c-1 2-1 4-1 6 0 2 1 4 1 5 0 2 0 4 1 5 1 3 3 6 5 9 2 3 4 5 7 7 1 1 3 2 4 3 1 0 2 0 2 1 1 0 1 0 2 0l1 1 1 0c0 0 1 0 1 0 1 1 2 1 2 1 2 0 4 1 5 1 6 1 12-1 17-2 2-1 4-2 6-4 0 0 1-1 1-2 1 0 1-1 1-2 0 0 0 0 0 0 2-1 3-2 5-4 1-2 3-5 4-8 1-3 2-6 2-9 0-2 0-5-1-8 0-2 0-3-1-4 0-1 0-1-1-2 0 0 0 0-1 0 1-1 1-3 1-4 0-2 0-4-1-6 0-1-1-3-2-5 0-1-1-2-1-3 0-1-1-2-1-3-1 0-1-1-1-1 0-1 0-1 0-2 0-1 0-3 1-4 0-1 0-1 1-2 0 0 0-1 1-1l0 0 0 0c0 0 0 0 0 0l0 0-1-1c-1-1-3-1-4-2-6-1-12-2-15-2 0 0 0 0 0 0 0 0 0 0 0-1 0 0 0 0 0 0 0-1 1-2 2-3 1-1 3-3 5-4 1-1 2-2 3-2 1-1 2-1 3-2 1 0 2-1 3-2 1-1 1-2 2-3 0-3 0-5 1-7 0-2 0-4 0-6 0 0 0-1 0-1 0-1 0-1 0-1 0-1 0-1 0-1 1-3 2-6 3-8 0-1 0-3 0-4 1-1 1-2 1-3 0-2-1-3-1-4 0 0 0-1 0-2 0-3 1-9 2-15-1-2-1-4-2-6z m5 21c0 0 0 1 0 1 1 1 1 3 1 4 0 2 0 3 0 5l0 0 0 0c0 1-1 3-1 4-1 2-1 5-2 7 0 0 0 0 0 1l0 0 0 0 0 0 0 1-1 1 0 0c0 2 0 4 0 6l0 0c0 3-1 5-1 8l0 0 0 0c-1 2-2 4-3 5-1 1-2 2-4 3l0 1 0 0c-1 0-2 1-4 2l0 0 0 0 0 0c-1 0-1 1-2 1l0 0 0 0c0 0 0 0 0 0 2 0 4 1 6 1 2 1 4 1 6 3l0 0 0 0 1 0 0 0c0 0 0 0 0 0l0 0 0 0c1 1 2 2 2 3l1 3-3 3 0 0 0 0c0 0 0 0 0 0 0 0 0 1 0 1-1 0-1 1-1 2 0 0 0 0 0 1 0 0 0 0 0 0 1 1 1 2 2 2l0 1c0 1 1 2 1 3 1 2 2 4 2 5 4-13 6-27 6-42 0-14-2-27-5-40 0 2-1 3-1 4z m-225 35c0 0 0 1 0 2l0 0c0 0 0 0 0 0 0 0 0 0 0 0 0 0-1 0-1 0 0 0-1 0-1 0 1 0 1-1 1-1 1-1 1-1 1-1z m-15-44c0 2-1 3-1 4-1 1-1 1-1 2 0 0 0 0 0-1 0 0 0-1 0-1 0-2-1-3-1-5 0-3-1-7-2-10 0-2 0-4 0-5 0-2 0-4 0-5 1-3 4-8 5-10 0 3 0 6 0 9 0 3 0 6 0 9 0 3 0 6 0 9 0 0 0 1 0 2 0 0 0 1 0 1 0 0 0 1 0 1z m176-21c0 0 0 1-1 2 0 0 0 1 0 2-1 2-2 6-3 9-3 6-5 11-7 16 0-1-1-3-1-3 2-13 4-28 5-40 0-3 0-6 0-9 2 4 3 7 4 10 0 0 0 0 0 0l0 0 0 0c0 0 0 0 0 0l0 0 0 1c0 1 0 2 0 3 1 2 1 3 1 4 1 1 1 1 1 2l0 0c0 0 0 0 0 0l0 0 1 0 0 0c0 0 0 0 0 0 0 0 0 0 0 0 0 1 0 1 0 1 0 0 0 1 0 2z m-86 243c-98 0-178-79-178-177 0-98 80-178 178-178 98 0 178 80 178 178 0 98-80 177-178 177z m0-346c-93 0-169 76-169 169 0 26 7 51 17 73 1 3 2 6 3 10 1 2 2 4 4 6 1 2 3 4 4 5 1 1 2 2 3 3 0 0 0 0 1 0 30 43 80 71 137 71 93 0 169-75 169-168 0-93-76-169-169-169z"/>
<glyph unicode="&#78;" d="M144 404c14 0 62-60 63-76 1-8-7-14-15-20-15-9-35-12-37-25-2-28 101-127 125-127l1 0c16 3 28 48 43 53 1 0 2 0 3 0 19 0 73-48 73-62 0-19-32-54-64-58-1 0-3 0-5 0-29 0-94 33-150 92-62 65-94 120-94 154 0 27 37 69 57 69m0 11c-27 0-69-48-69-80 0-38 35-95 97-162 59-61 126-95 159-95 3 0 4 0 6 1 37 5 74 44 74 69 0 22-59 73-84 73-2 0-4 0-6-1-12-4-19-17-27-32-4-6-11-18-14-21-8 2-33 20-65 50-37 37-49 59-48 64 1 3 10 6 15 9 5 2 11 5 16 8 6 4 22 14 20 30-1 20-52 87-74 87z m181-137c-1 23-25 47-51 53l2 11c31-7 58-35 60-63z m63 6c-6 47-56 105-109 105l0 11c58 0 113-63 120-114z m-132-284c-141 0-256 115-256 256 0 141 115 256 256 256 141 0 256-115 256-256 0-144-112-256-256-256z m0 495c-132 0-239-107-239-239 0-132 107-239 239-239 134 0 239 105 239 239 0 132-107 239-239 239z"/>
<glyph unicode="&#79;" d="M256 512c-142 0-256-114-256-256 0-142 115-256 256-256 142 0 256 114 256 256 0 142-115 256-256 256z m166-80l-22 0 0 19c7-6 15-12 22-19z m13-14l0-21-35 0 0 24 33 0c1-1 2-2 2-3z m-35-239l0 25 35 0 0-25z m35-12l0-24-35 0 0 24z m-35 48l0 24 35 0 0-24z m0 37l0 24 35 0 0-24z m0 35l0 25 35 0 0-25z m0 37l0 24 35 0 0-24z m0 36l0 24 35 0 0-24z m0-229l35 0 0-24-35 0z m52 267c29-40 46-89 46-142 0-53-17-102-46-142z m-68 63l0-56-251 0 0 60c36 21 78 33 123 33 47 0 91-13 128-37z m-303-282l0 25 35 0 0-25z m35-12l0-24-35 0 0 24z m-35 48l0 24 35 0 0-24z m0 37l0 24 35 0 0-24z m0 35l0 25 35 0 0-25z m0 37l0 24 35 0 0-24z m0 36l0 24 35 0 0-24z m0-229l35 0 0-24-35 0z m35 266l-35 0 0 24 35 0z m-1 35l-25 0c8 8 17 15 25 21z m18-40l251 0 0-133-251 0z m0-145l251 0 0-134-251 0z m-68 158l0-298c-32 41-51 93-51 149 0 56 19 108 51 149z m15-315l0 4 35 0 0-24-14 0c-8 7-15 13-21 20z m52-42l0 54 251 0 0-52c-37-23-81-36-127-36-45 0-87 12-124 34z m278 21l-11 0 0 25 35 0 0-2c-7-8-15-16-24-23z"/>
<glyph unicode="&#80;" d="M256 512c-141 0-256-115-256-256 0-141 115-256 256-256 144 0 256 112 256 256 0 141-115 256-256 256z m0-495c-132 0-239 107-239 239 0 132 107 239 239 239 132 0 239-107 239-239 0-134-105-239-239-239z m0 446c-114 0-206-92-206-206 0-114 93-206 206-206 114 0 206 92 206 206 0 114-93 206-206 206z m134-64l-18 0 0 15c6-5 12-10 18-15z m10-11l0-18-28 0 0 19 27 0c0 0 1-1 1-1z m-28-193l0 20 28 0 0-20z m28-10l0-19-28 0 0 19z m-28 39l0 19 28 0 0-19z m0 29l0 20 28 0 0-20z m0 29l0 20 28 0 0-20z m0 30l0 19 28 0 0-19z m0 28l0 20 28 0 0-20z m0-184l28 0 0-19-28 0z m42 215c23-32 37-72 37-114 0-43-14-82-37-114z m-55 51l0-45-202 0 0 48c29 17 63 27 99 27 38 0 73-11 103-30z m-244-227l0 20 29 0 0-20z m29-10l0-19-29 0 0 19z m-29 39l0 19 29 0 0-19z m0 29l0 20 29 0 0-20z m0 29l0 20 29 0 0-20z m0 30l0 19 29 0 0-19z m0 28l0 20 29 0 0-20z m0-184l29 0 0-19-29 0z m29 214l-29 0 0 19 29 0z m-1 29l-20 0c6 6 13 11 20 16z m14-32l202 0 0-108-202 0z m0-118l202 0 0-107-202 0z m-55 128l0-240c-26 33-41 75-41 120 0 45 15 86 41 120z m12-254l0 4 29 0 0-20-12 0c-6 5-12 11-17 16z m42-34l0 44 202 0 0-42c-30-19-65-29-102-29-36 0-70 10-100 27z m224 17l-9 0 0 21 29 0 0-2c-6-7-13-13-20-19z"/>
<glyph unicode="&#81;" d="M70 264l372 0 0-11-372 0z m186-264c-141 0-256 115-256 256 0 141 115 256 256 256 141 0 256-115 256-256 0-144-112-256-256-256z m0 495c-132 0-239-107-239-239 0-132 107-239 239-239 134 0 239 105 239 239 0 132-107 239-239 239z"/>
<glyph unicode="&#82;" d="M59 262l394 0 0-12-394 0z"/>
<glyph unicode="&#83;" d="M360 128l-9 8c0 0-29 26-53 46l-95 0c-26 0-46 21-46 46l0 131c0 25 20 46 46 46l167 0c25 0 46-21 46-46l0-131c0-25-21-46-46-46l-12 0z m-157 266c-19 0-35-15-35-35l0-131c0-18 15-35 35-35l99 0 2-1c15-14 34-31 44-40l-1 41 23 0c19 0 35 16 35 35l0 131c0 19-16 35-35 35z m-60-313l0 42-5 0c-25 0-44 20-44 44l0 81c0 25 19 44 44 44l6 0 0-72c0-26 20-47 44-47l99 0 17-15-1-3c-6-19-22-31-41-31l-65 0z m-10 199c-16-2-28-16-28-32l0-81c0-17 14-33 33-33l17 0 0-30 38 30 69 0c13 0 24 8 29 20l-8 7-95 0c-30 0-55 27-55 58l0 61z m123-280c-141 0-256 115-256 256 0 141 115 256 256 256 141 0 256-115 256-256 0-144-112-256-256-256z m0 494c-132 0-239-107-239-239 0-132 107-239 239-239 134 0 239 105 239 239 0 133-107 239-239 239z"/>
<glyph unicode="&#84;" d="M422 74l-14 13c0 0-46 41-83 73l-151 0c-40 0-72 32-72 73l0 207c0 40 32 72 72 72l264 0c41 0 73-32 73-72l0-207c0-41-32-73-73-73l-18 0z m-248 421c-30 0-55-24-55-55l0-207c0-30 24-55 55-55l158 0 2-3c24-21 54-48 70-63l-2 66 36 0c30 0 55 24 55 55l0 207c0 29-24 55-55 55z m-95-495l0 67-8 0c-39 0-70 31-70 69l0 129c0 38 31 69 70 69l11 0 0-115c0-40 30-73 68-73l157 0 27-24-1-6c-9-29-36-48-66-48l-103 0z m-16 315c-26-4-44-25-44-50l0-129c0-28 22-52 52-52l27 0 0-48 60 48 109 0c20 0 39 12 47 31l-13 12-151 0c-47 0-86 41-86 91l0 97z"/>
<glyph unicode="&#85;" d="M375 328l-4-11c0 0 1 0 1 0l-7-8 9-7 10 12 9-15 9 5-11 19 13 15-9 7-10-12-11 17-9-5 10-18c0 0 0 1 0 1z m-36 92l-80-49-83 45-83-51 0-234 83 64 83-53 80 53 83-60 0 236z m-168-96c-1 0-1 0-1 0-5-1-10-3-16-7l6-9c4 2 7 3 11 4l0-107-67-51 0 205 67 41z m82-52c-5 1-10 4-15 8l-7-9c8-5 15-9 22-11l0-102-71 47 0 107c5-1 10-4 16-8l7 9c-8 6-16 10-23 11l0 77 71-39z m81 34l-5 5c-4-3-8-6-12-9l6-9c4 2 7 4 11 8l0-95-69-47 0 100c0 0 1 0 1 0 4 1 7 2 10 4l-4 10c-2-2-5-2-7-2l0 90 69 42z m77-150l-66 49 0 198 66-39z m-52 161c1 0 2 0 3 0l-3 12c-1 0-2-1-3-1-4-2-7-4-11-6l6-10c2 3 6 5 8 5z m-70-35l-5-3 6-9 5 3c5 3 9 6 13 9l-6 9c-4-3-8-6-13-9z m-77 24l-8-8c3-3 7-6 10-10l3-3 7 8-2 2c-4 5-7 8-10 11z m-81-17l10-6c2 5 5 10 9 15l-8 7c-5-5-8-11-11-16z m125-289c-141 0-256 114-256 256 0 142 114 256 256 256 142 0 256-114 256-256 0-144-113-256-256-256z m0 500c-135 0-244-109-244-244 0-135 109-244 244-244 137 0 244 107 244 244 0 134-109 244-244 244z"/>
<glyph unicode="&#86;" d="M381 479l-124-75-128 70-128-79 0-362 128 99 128-83 124 83 130-94 0 366z m-243-167c9-1 17-5 26-12l10 14c-12 10-24 15-36 17l0 119 111-61 0-139c-7 2-15 6-23 13l-11-14c12-8 23-14 34-17l0-158-111 73z m129-81c1 0 2 0 2 0 5 1 11 3 16 5l-7 16c-4-3-7-4-11-4l0 141 107 64 0-150-7 8c-7-5-13-9-20-14l11-15c5 4 10 8 16 13l0-147-107-73z m-249 154l103 63 0-117c0 0-1 0-1 0-8-2-16-5-24-10l9-15c5 4 11 5 16 6l0-165-103-79z m476-314l-103 75 0 307 103-60z m-57 266l-5-16c0 0 0-1 1-1l-10-12 13-11 15 18 14-23 15 9-18 28 20 24-13 11-16-19-16 27-15-9 16-27c0 0-1 0-1 1z m-24-18c1 2 3 2 4 2l-4 17c-1 0-4-1-5-1-5-3-11-6-17-10l9-14c4 4 9 6 13 6z m-108-52l-8-6 9-14 8 5c7 4 13 9 20 13l-9 15c-7-4-14-9-20-13z m-120 37l-12-14c5-4 10-9 16-16l4-3 11 11-3 4c-6 7-11 12-16 18z m-124-27l14-9c4 8 8 14 15 22l-14 11c-6-8-11-17-15-24z"/>
<glyph unicode="&#87;" d="M285 1c-7 0-14 2-19 8-6 5-9 13-9 22 0 24 0 50 0 75 0 49 0 89 0 106 0 4-1 5-1 5 0 0-1-1-1-4 0-9 0-29 0-53 0-39-1-91-1-129 0-21-13-31-26-31-7 0-14 3-19 9-4 4-9 12-9 25 0 37 0 126 0 202-6-29-45-27-46 5-1 35-1 103 0 130 1 32 24 53 61 53 13 0 31 0 47 0 15 0 28 0 36 0 43 0 60-30 61-57 0-17 0-52 0-83 0-16 0-31 0-40 0-18-12-28-24-28-7 0-13 3-18 9-4 5-6 12-6 19 0-48 0-101 0-146l0-72c1-16-12-25-26-25z m-29 231c3 0 8-1 10-4 2-2 5-8 5-16 0-17 0-60 0-106 0-25 0-51 0-75 0-5 1-9 5-11 2-2 6-4 9-4 3 0 13 2 13 14l0 71c0 103 0 244 1 261 1 10 7 15 13 15 3 0 6-1 9-4 3-4 4-9 4-14 0-13 0-37 0-61 0-16 0-34 0-48 0-7 2-11 3-13 6-7 16-3 16 11 0 9 0 24 0 40 0 30 1 66 0 83-2 20-14 42-48 42-8 0-20 0-35 0-16 0-34 0-47 0-29 0-46-14-47-39-1-25-1-94 0-128 0-8 4-12 9-12 4 0 9 3 9 12 0 19 0 59 0 86 0 11 0 20 0 25 0 26 27 22 27 2 0-11 0-52 0-102 0-79 0-179 0-220 0-7 2-13 4-15 3-3 6-4 9-4 7 0 11 6 11 15 0 38 1 90 1 129 0 24 0 44 0 52 4 12 12 18 19 18z m2 266c14 0 26-12 26-27 0-14-12-26-26-26-14 0-26 12-26 26 0 15 12 27 26 27m0 14c-22 0-41-18-41-41 0-21 18-40 41-40 23 0 41 17 41 40-1 22-19 41-41 41z"/>
<glyph unicode="&#88;" d="M277 62c-6 0-11 1-15 6-4 4-7 10-7 16 0 19 0 39 0 59 0 37 0 68 0 81 0 3-1 4-1 4 0 0-1-1-1-3 0-7 0-22 0-41 0-30 0-70 0-100 0-16-11-23-20-23-6 0-11 2-15 7-3 3-7 9-7 19 0 29 0 97 0 155-4-21-34-20-35 5-1 27-1 79 0 99 1 26 18 42 47 42 10 0 24 0 36 0 11 0 22 0 27 0 34 0 47-24 48-44 0-14 0-41 0-64 0-13 0-24 0-31 0-14-10-22-19-22-5 0-10 3-13 7-4 4-5 9-5 15 0-37 0-78 0-113l0-55c0-13-10-19-20-19z m-23 178c3 0 6-1 8-3 2-2 4-6 4-13 0-13 0-46 0-81 0-20 0-40 0-59 0-3 1-6 4-8 1-2 5-2 7-2 2 0 9 0 9 10l0 55c0 79 0 188 1 201 1 7 6 11 10 11 3 0 5 0 7-3 3-2 4-7 4-11 0-9 0-28 0-46 0-13 0-27 0-38 0-5 1-8 2-10 4-5 12-2 12 9 0 7 0 18 0 31 0 23 1 51 0 63-1 16-10 33-36 33-7 0-16 0-27 0-13 0-27 0-37 0-23 0-35-11-36-30-1-19-1-73 0-99 0-6 3-9 7-9 3 0 6 2 6 9 0 15 0 46 0 67 0 8 0 15 0 19 0 20 22 17 22 1 0-8 0-40 0-78 0-61 0-138 0-169 0-6 1-11 3-12 2-3 4-4 7-4 5 0 8 5 8 12 0 30 1 69 1 100 0 18 0 34 0 40 2 9 9 14 14 14z m2 204c11 0 20-9 20-20 0-11-9-20-20-20-11 0-20 9-20 20 0 11 9 20 20 20m0 11c-17 0-31-13-31-31 0-17 13-31 31-31 18 0 31 13 31 31-1 17-14 31-31 31z m0-455c-141 0-256 115-256 256 0 141 115 256 256 256 141 0 256-115 256-256 0-144-112-256-256-256z m0 495c-132 0-239-107-239-239 0-132 107-239 239-239 134 0 239 105 239 239 0 132-107 239-239 239z"/>
<glyph unicode="&#89;" d="M7 420l0-328 498 0 0 328z m243-186c-17 13-33 26-51 40-51 40-108 85-161 128l434 0c-63-49-136-104-222-168z m-74 37c-49-51-95-96-152-151l0 272c50-41 103-83 152-121z m14-11c20-15 39-29 55-43l5-4 5 4c22 16 43 32 63 47 8-9 17-18 27-27 38-39 83-84 129-128l-438 0c57 55 104 100 154 151z m169-9c-9 9-17 17-24 25 56 42 106 81 152 116l0-268c-46 44-91 90-128 127z"/>
<glyph unicode="&#90;" d="M94 371l0-215 325 0 0 215z m159-122c-11 9-22 17-34 26-33 26-70 56-105 84l284 0c-41-32-89-68-145-110z m-49 24c-32-33-62-62-99-98l0 177c33-26 67-54 99-79z m9-7c13-10 26-19 36-28l4-2 3 2c14 11 28 21 41 31 5-6 11-12 17-18 25-25 55-55 85-84l-286 0c37 37 67 66 100 99z m111-6c-6 6-11 12-16 17 37 27 70 52 99 76l0-175c-30 28-59 58-83 82z m-68-260c-141 0-256 115-256 256 0 141 115 256 256 256 141 0 256-115 256-256 0-144-112-256-256-256z m0 495c-132 0-239-107-239-239 0-132 107-239 239-239 134 0 239 105 239 239 0 132-107 239-239 239z"/>
<glyph unicode="&#48;" d="M105 495c22 0 95-91 96-115 2-12-10-21-23-30-23-14-52-19-55-38-4-43 153-193 189-193l1 0c24 4 44 73 67 80 1 0 2 0 4 0 29 0 110-72 110-94 0-29-49-82-96-88-3 0-5 0-8 0-45 0-144 50-228 140-94 98-143 182-143 234 0 40 57 104 86 104m0 17c-41 0-104-73-104-121 0-57 53-145 148-246 88-94 191-145 241-145 4 0 7 0 9 1 57 8 112 67 112 106 0 33-89 110-127 110-3 0-7 0-9-1-18-6-30-26-41-48-7-10-17-28-22-32-12 3-50 30-98 76-56 56-74 90-73 97 1 4 16 9 22 13 8 4 17 8 24 13 9 5 34 20 31 45-1 31-78 132-113 132z m276-208c-2 35-38 72-78 81l4 17c46-11 87-54 91-97z m95 9c-9 72-85 159-165 159l0 17c88 0 171-95 182-173z"/>
<glyph unicode="&#49;" d="M373 170c-7 0-11 5-11 12l0 26 89 0c8 0 15 5 19 13 3 7 1 16-5 22l-49 52 10 0c8 0 15 5 19 13 3 8 2 17-5 24l-46 48 10 0c10 0 18 6 21 15 4 8 2 18-4 25l-83 85c-9 9-23 9-31 0l-83-85c-7-7-8-17-4-25 4-9 12-15 20-15l11 0-47-48c-6-7-7-17-4-24 3-9 10-13 18-13l10 0-49-52c-6-5-7-15-4-22 3-9 10-13 18-13l95 0 0-26c0-7-5-12-11-12l-117 0-6 15 29 0 0 19-36 0-6 14 17 0 0 22-94 0 0-22 16 0-6-15-37 0 0-19 30 0-5-16-53 0 4-9c42-97 137-159 242-159 106 0 202 62 244 160l4 10z m-239-2l-45 0 7 16 32 0z m-20 50l6-14-19 0 5 14z m141-204c-95 0-181 54-224 139l248 0c15 0 25 12 25 26l0 41-108 0c-4 0-6 3-6 4-1 2-1 5 1 8l72 75-43 0c-4 0-6 3-6 4-1 2-1 5 1 8l70 72-45 0c-5 0-7 5-7 6-1 2-1 6 2 10l82 85c4 4 8 4 11 0l83-85c3-4 3-8 2-10-1-1-3-6-8-6l-44 0 69-72c3-3 3-6 2-8 0-1-3-4-6-4l-43 0 71-75c3-3 3-6 1-8 0-1-2-4-5-4l-103 0 0-40c0-14 11-26 25-26l108 0c-42-86-129-140-225-140z"/>
<glyph unicode="&#50;" d="M348 182c-5 0-8 5-8 10l0 20 69 0c6 0 12 4 14 10 3 6 1 13-3 18l-38 40 7 0c6 0 12 4 15 10 2 7 2 13-4 18l-36 38 9 0c7 0 13 5 16 11 3 7 1 15-4 20l-64 67c-7 6-18 6-24 0l-65-67c-5-5-6-13-3-20 3-6 9-11 16-11l8 0-36-38c-5-5-6-12-3-18 2-7 7-10 14-10l8 0-38-40c-5-4-6-12-4-18 3-7 8-10 15-10l73 0 0-20c0-5-4-10-8-10l-92 0-4 12 22 0 0 16-28 0-4 11 13 0 0 16-73 0 0-16 12 0-4-12-29 0 0-16 24 0-5-11-41 0 3-8c33-75 107-123 189-123 82 0 156 48 189 124l3 7z m-186 0l-34 0 5 11 25 0z m-15 39l4-11-14 0 4 11z m110-159c-74 0-141 42-175 108l193 0c11 0 20 9 20 20l0 31-85 0c-2 0-4 3-4 4-1 1-1 4 1 6l56 58-34 0c-3 0-4 2-4 3-1 2-1 5 1 6l54 57-35 0c-4 0-6 3-6 4-1 2-1 5 2 8l64 66c3 3 6 3 8 0l65-66c2-3 2-6 1-8 0-1-2-4-6-4l-34 0 54-57c2-1 2-4 1-6 0-1-2-3-5-3l-33 0 55-58c2-2 2-5 1-6 0-1-1-4-4-4l-80 0 0-30c0-11 8-20 19-20l85 0c-33-67-101-109-175-109z m-1 450c-141 0-256-115-256-256 0-141 115-256 256-256 144 0 256 112 256 256 0 141-115 256-256 256z m0-495c-132 0-239 107-239 239 0 132 107 239 239 239 132 0 239-107 239-239 0-134-105-239-239-239z"/>
<glyph unicode="&#51;" d="M208 432c11-3 21-6 30-9 28-8 50-14 81-23 44-12 67-51 62-103-2-33-7-48-19-55-6-3-13-4-22-4-7 0-17 1-27 3 1 53 1 101 1 109 0 11 0 39-24 45-2 1-4 1-5 1-8 0-27-4-27-47 0-8 0-47 0-96 0-52 0-116-1-171-23 8-35 13-51 18 0 53 1 119 1 182 0 56 1 108 1 150m-14 19c0-93-3-253-3-360 24-10 38-15 78-28 0 106 2 268 2 286 0 21 5 33 12 33 1 0 1 0 2 0 9-2 13-12 13-32 0-8-1-59-1-120 17-5 31-6 42-6 13 0 21 3 28 6 19 10 24 33 27 65 4 60-24 105-72 119-45 12-73 20-128 37z m94-390l1 61 5 1c31 10 55 18 83 28l22 8c25 8 28 13 29 14 0 0-3 1-11 1-9 0-24-1-51-8-20-6-43-14-68-22l-9-3 1 55 5 1c12 3 22 6 29 8 26 8 54 12 81 12 39 0 71-9 90-24 15-12 17-24 16-32-1-12-10-22-25-30-25-12-106-41-188-66z m15 50l0-31c76 25 153 52 176 63 11 6 18 13 18 19 1 8-6 16-11 20-16 14-46 20-81 20-26 0-52-3-78-11-5-1-13-3-23-7l0-24c21 7 41 13 59 18 41 12 68 13 76 3 4-4 4-9 4-12-3-9-14-16-38-23l-22-8c-28-10-51-18-80-27z m-207-18c-23 0-57 10-73 23-17 12-24 24-22 36 2 17 20 30 53 44 10 4 22 8 38 14 19 7 41 14 71 25l10 4 0-60-5-1c-37-14-56-20-73-27l-3-1c-11-4-12-8-12-8 0 0 4-2 14-2 6 0 11 1 17 2 12 2 22 6 36 10l25 8 0-54-6-1c-30-8-38-8-58-10l-5 0c-2-2-5-2-7-2z m62 126c-24-9-44-17-61-22-15-6-27-10-37-14-37-14-44-26-45-32-1-9 9-18 17-23 13-10 49-21 70-19l5 0c19 1 27 2 51 9l0 24-6-2c-15-4-26-8-38-10-7-1-13-2-20-2-16 0-25 4-28 12-1 3-3 17 20 26l4 1c15 5 34 12 68 24z"/>
<glyph unicode="&#52;" d="M221 413c8-2 16-4 22-7 21-6 38-11 62-17 33-10 51-39 47-79-1-24-6-36-15-41-4-3-9-4-16-4-6 0-13 1-21 3 1 40 1 77 1 83 0 8 0 29-18 34-2 1-3 1-4 1-6 0-20-3-20-36 0-6 0-36 0-73 0-40 0-89-1-130-18 6-27 9-39 14 0 40 1 90 1 138 0 42 1 82 1 114m-11 15c0-71-3-193-3-274 19-8 30-12 60-21 0 80 1 203 1 217 0 16 4 25 9 25 1 0 1 0 2 0 7-2 10-9 10-24 0-6-1-45-1-92 13-3 24-4 32-4 10 0 16 2 21 4 15 8 19 26 21 50 3 46-18 80-55 91-34 9-55 15-97 28z m71-297l1 46 4 1c23 8 42 14 63 21l17 6c18 6 21 10 22 11 0 0-3 1-9 1-6 0-18-1-39-7-15-4-32-10-51-16l-7-2 1 41 3 1c10 3 17 5 22 7 21 6 42 8 62 8 30 0 54-7 68-18 12-9 14-18 13-24-1-9-7-17-19-23-19-9-81-31-143-51z m11 38l0-24c59 19 117 40 135 48 8 5 13 10 13 15 1 6-4 12-8 15-12 10-35 15-62 15-19 0-40-2-59-8-4-1-10-3-18-5l0-19c16 5 31 10 45 14 31 9 52 10 58 2 3-3 3-7 3-9-2-7-10-12-29-18l-17-6c-21-7-39-13-61-20z m-157-14c-18 0-44 8-56 17-12 10-18 19-16 28 1 13 15 23 40 33 8 4 17 7 29 11 14 5 31 11 54 20l7 2 0-45-3-1c-29-10-43-16-56-21l-2 0c-9-4-9-6-9-6 0 0 3-2 10-2 5 0 9 1 13 2 9 1 17 4 28 7l19 6 0-41-5-1c-22-6-28-6-44-8l-4 0c-1-1-3-1-5-1z m47 96c-18-7-33-13-46-17-12-4-21-8-29-10-28-11-33-20-33-25-1-6 6-13 12-17 10-8 37-16 53-15l5 0c14 1 20 2 38 7l0 19-5-2c-11-3-19-6-28-8-5-1-10-1-16-1-11 0-19 3-21 9 0 2-2 13 16 19l2 1c12 4 26 10 52 19z m74-251c-141 0-256 115-256 256 0 141 115 256 256 256 141 0 256-115 256-256 0-144-112-256-256-256z m0 495c-132 0-239-107-239-239 0-132 107-239 239-239 134 0 239 105 239 239 0 132-107 239-239 239z"/>
<glyph unicode="&#53;" d="M261 265l0 180-11 0 0-180-180 0 0-11 180 0 0-180 11 0 0 180 181 0 0 11z m-5 247c-141 0-256-115-256-256 0-141 115-256 256-256 144 0 256 112 256 256 0 141-115 256-256 256z m0-495c-132 0-239 107-239 239 0 132 107 239 239 239 132 0 239-107 239-239 0-134-105-239-239-239z"/>
<glyph unicode="&#54;" d="M263 264l0 248-15 0 0-248-248 0 0-15 248 0 0-249 15 0 0 249 249 0 0 15z"/>
<glyph unicode="&#55;" d="M135 4l-10 12 242 240-242 240 10 12 252-252z"/>
<glyph unicode="&#56;" d="M208 68l-8 9 183 182-183 181 8 9 190-190z m48-68c-141 0-256 115-256 256 0 141 115 256 256 256 141 0 256-115 256-256 0-144-112-256-256-256z m0 495c-132 0-239-107-239-239 0-132 107-239 239-239 134 0 239 105 239 239 0 132-107 239-239 239z"/>
<glyph unicode="&#57;" d="M335 307c0 69-56 125-125 125-70 0-126-56-126-125 0-70 56-125 126-125 25 0 48 7 68 20l101-99 32 34-100 96c15 21 24 46 24 74z m-240 0c0 63 52 114 115 114 62 0 114-51 114-114 0-25-8-47-21-66l-1 1-3-5c-7-9-15-16-24-23l-5-4c-18-11-38-17-60-17-64 0-115 50-115 114z m209-82l91-89-16-17-92 89c5 5 10 9 15 14 1 1 1 2 2 3z m-48 287c-141 0-256-115-256-256 0-141 115-256 256-256 144 0 256 112 256 256 0 141-115 256-256 256z m0-495c-132 0-239 107-239 239 0 132 107 239 239 239 132 0 239-107 239-239 0-134-105-239-239-239z"/>
<glyph unicode="&#33;" d="M392 317c0 108-87 195-195 195-108 0-195-87-195-195 0-108 87-195 195-195 39 0 75 12 106 32l158-154 49 53-155 150c23 32 37 71 37 114z m-373 0c0 99 80 178 178 178 97 0 177-79 177-178 0-38-11-73-32-102l0 1-6-8c-10-13-23-25-38-36l-7-6c-27-17-60-26-94-26-99 0-178 78-178 177z m325-127l142-139-26-26-143 139c9 7 16 14 24 22 1 1 2 2 3 4z"/>
<glyph unicode="&#34;" d="M257 64c-15 0-29 2-44 5l-5 1 7 48c-10 3-19 7-29 13l-31-38-4 2c-23 16-43 36-57 60l-3 4 40 29c-5 9-9 18-12 29l-48-6-1 5c-2 14-4 26-4 40 0 14 2 29 5 43l1 5 48-7c3 10 7 20 12 29l-38 31 2 4c16 23 36 43 59 58l4 3 29-39c9 5 18 9 29 12l-6 48 5 1c28 5 55 5 83 0l5-1-7-48c10-3 20-7 29-12l31 39 4-3c23-15 43-35 58-58l3-4-39-29c5-9 9-19 12-30l49 6 0-5c4-14 5-28 5-42 0-14-1-27-4-41l-1-5-48 7c-2-10-7-20-12-30l39-29-2-4c-15-24-35-44-59-59l-4-2-28 39c-10-5-19-10-30-13l7-48-5-1c-16-5-31-7-45-7z m-36 15c24-5 47-5 71 0l-6 48 5 1c11 3 23 7 33 14l6 2 28-38c19 13 35 30 48 49l-38 29 2 4c6 11 11 22 14 35l3 6 46-7c2 11 4 22 4 33 0 11-1 23-4 35l-48-6-1 5c-3 12-7 24-14 34l-2 6 38 28c-13 18-30 35-49 48l-29-38-4 2c-11 6-22 11-34 15l-6 2 7 47c-23 4-45 4-68 0l6-49-5 0c-12-4-24-8-35-15l-6-2-28 38c-18-13-35-29-48-48l38-29-2-4c-7-11-11-22-15-34l-2-6-47 7c-2-11-3-23-3-35 0-11 1-22 3-32l49 6 0-5c4-12 8-24 14-35l2-6-38-28c13-18 29-35 48-48l30 38 4-2c11-7 22-11 34-15l6-2z m36 86c-50 0-91 40-91 91 0 51 40 91 91 91 51 0 91-40 91-91 0-51-40-91-91-91z m0 170c-44 0-80-35-80-80 0-45 35-80 80-80 45 0 80 35 80 80 0 45-36 80-80 80z m-1-335c-141 0-256 115-256 256 0 141 115 256 256 256 141 0 256-115 256-256 0-144-112-256-256-256z m0 495c-132 0-239-107-239-239 0-132 107-239 239-239 134 0 239 105 239 239 0 132-106 239-239 239z"/>
<glyph unicode="&#35;" d="M512 2l-282 39 0 208 282 0z m-264 56l245-33 0 205-245 0z m-35-15l-213 29 0 177 213 0z m-194 45l175-25 0 166-175 0z m194 177l-213 0 0 174 213 29z m-194 18l175 0 0 164-175-24z m493-18l-282 0 0 205 282 40z m-264 18l245 0 0 205-245-34z"/>
<glyph unicode="&#36;" d="M255 0c-19 0-38 2-59 7l-6 1 10 64c-14 4-26 9-40 17l-40-51-6 4c-30 20-58 47-77 79l-3 5 53 39c-7 12-12 24-16 39l-64-8-1 7c-4 18-6 35-6 53 0 19 2 38 7 57l1 7 64-10c4 13 9 27 16 39l-51 41 4 6c20 30 47 57 77 77l6 4 38-52c13 7 25 12 40 16l-8 64 7 1c37 8 73 8 110 0l7-1-10-64c13-4 27-9 39-16l41 52 6-4c31-20 57-46 77-77l4-6-52-38c7-13 12-25 17-40l64 8 1-7c5-19 7-37 7-56 0-18-2-36-6-54l-1-7-64 9c-4-13-9-27-16-39l52-40-3-5c-20-32-47-59-78-78l-6-4-38 52c-13-6-25-12-40-17l9-64-6-1c-22-7-41-9-60-9z m-49 19c33-7 64-7 96 0l-9 64 7 2c16 4 32 10 45 19l8 3 37-51c25 17 46 40 63 65l-50 39 3 6c8 14 15 29 19 46l3 8 62-9c3 14 5 29 5 44 0 14-1 30-5 46l-64-8-1 7c-4 16-10 31-19 45l-3 8 50 37c-17 25-39 47-64 64l-39-50-6 3c-15 8-29 15-45 19l-8 3 9 62c-30 6-60 6-90 0l8-64-7-1c-16-4-32-10-46-19l-8-3-37 50c-25-17-48-38-65-63l51-39-3-6c-9-15-15-29-19-45l-4-8-62 10c-3-16-4-31-4-47 0-15 1-29 4-43l64 8 2-7c4-16 10-31 18-46l3-8-51-37c17-25 39-47 63-64l41 50 6-3c14-9 29-15 45-19l8-4z m49 115c-67 0-122 54-122 122 0 67 54 122 122 122 68 0 122-55 122-122 0-68-54-122-122-122z m0 228c-59 0-107-48-107-107 0-60 47-107 107-107 60 0 107 47 107 107 0 59-49 107-107 107z"/>
<glyph unicode="&#37;" d="M282 7c-13 0-25 10-25 29 0 14 0 40 0 68l0 57-3 0c0-19 0-38 0-58 0-25 0-50 0-68 0-19-12-28-24-28-13 0-27 10-27 29l0 126c-18 0-35 0-50 0l-10 0 3 10c8 19 17 47 27 76-5-9-13-14-21-14-7 0-13 3-16 9-6 7-7 17-3 27 3 6 8 21 13 38 11 30 24 67 28 79 9 27 23 38 50 38 7 0 12 0 19 0 11 0 24 0 47 0l1 0c23 0 39-13 48-39 4-13 12-34 20-59 7-18 13-37 20-55 4-12 3-23-3-30-4-6-9-9-16-9-6 0-15 3-21 12 4-12 9-24 14-38l16-45-10 0c-16 0-34 0-52 0 0-17 0-34 0-51 0-27 0-53 0-72 1-21-12-32-25-32z m-40 169l30 0 0-70c0-29 0-55 0-69 0-11 5-15 11-15 6 0 12 5 12 17 0 20 0 45 0 72 0 19 0 40 0 59l0 7 8 0c17 0 33 0 49 0l-10 27c-25 73-40 113-50 141-2 7-1 12 1 16 2 4 5 6 10 6 5 0 11-3 15-13 2-4 4-12 6-20 8-22 17-52 25-72 4-10 9-13 14-13 2 0 4 1 5 3 2 3 2 10 0 17-7 19-13 38-19 56-9 25-17 46-22 59-6 20-17 29-34 29l-1 0c-24 0-35 0-47 0-6 0-12 0-18 0-21 0-30-7-37-28-4-12-17-49-28-79-6-17-10-32-13-38-2-6-2-11 0-15 4-5 12-4 18 10 9 28 23 66 32 90 3 8 8 14 15 14 4 0 7-2 9-6 4-4 4-9 1-15-3-9-14-38-24-71-12-33-24-70-33-97 13 0 30 0 47 0l7 0 0-139c0-10 7-15 13-15 5 0 11 3 11 14 0 18 0 42 0 69 0 21 0 44 0 64z m16 315c14 0 24-12 24-25 0-12-12-24-24-24-13 0-25 12-25 24 0 13 11 25 25 25m0 14c-22 0-40-17-40-40 0-21 17-39 40-39 22 0 39 17 39 39-1 23-18 40-39 40z"/>
<glyph unicode="&#38;" d="M392 108l-167 23 0 123 167 0z m-156 33l145-20 0 122-145 0z m-21-9l-126 17 0 105 126 0z m-115 27l104-15 0 98-104 0z m115 104l-126 0 0 103 126 18z m-115 11l104 0 0 97-104-14z m292-11l-167 0 0 122 167 24z m-156 11l145 0 0 122-145-20z m20-274c-141 0-256 115-256 256 0 141 115 256 256 256 141 0 256-115 256-256 0-143-112-256-256-256z m0 495c-132 0-239-107-239-239 0-132 107-239 239-239 134 0 239 105 239 239 0 132-107 239-239 239z"/>
<glyph unicode="&#39;" d="M512 38l-512 0 255 436z m-485 15l458 0-231 391z m228 30c-17 0-30 14-30 31 0 17 13 30 30 30 17 0 31-13 31-30 0-17-14-31-31-31z m0 45c-8 0-14-7-14-14 0-8 7-15 14-15 9 0 15 7 15 15 0 7-6 14-15 14z m33 41l-67 0-8 176 83 0z m-52 16l38 0 6 145-51 0z"/>
<glyph unicode="&#40;" d="M434 150l-354 0 177 301z m-335 10l317 0-160 270z m158 21c-12 0-21 9-21 21 0 12 9 21 21 21 12 0 21-9 21-21 0-12-9-21-21-21z m0 31c-6 0-10-5-10-10 0-5 5-10 10-10 6 0 10 5 10 10 0 5-4 10-10 10z m23 28l-47 0-6 122 58 0z m-37 11l27 0 4 100-36 0z m13-251c-141 0-256 115-256 256 0 141 115 256 256 256 141 0 256-115 256-256 0-143-112-256-256-256z m0 495c-132 0-239-107-239-239 0-132 107-239 239-239 134 0 239 105 239 239 0 132-107 239-239 239z"/>
<glyph unicode="&#41;" d="M354 417c26 0 49-12 61-27 18 3 37 11 54 21-6-19-21-36-37-46 22 2 33 7 46 12-6-12-25-33-40-43 4-62-25-141-72-185-52-48-111-66-165-66-51 0-98 16-132 37 6 0 12-1 17-1 47 0 82 16 106 35-36 1-66 24-78 58 5-1 8-1 13-1 7 0 15 1 23 4-34 5-68 40-67 83 9-3 21-8 38-9-36 22-47 76-25 111 36-43 101-87 173-87 0 0 0 0 1 0-7 28 2 67 34 87 17 12 34 17 50 17m142 28l-36-19c-14-9-28-14-40-17-16 15-41 24-66 24-21 0-42-6-59-18-31-21-43-55-43-84-58 6-114 44-144 80l-15 17-12-19c-16-27-17-62-5-90l-8 4 0-25c-2-26 9-49 24-66l-3 0 9-24c10-27 29-49 53-60-20-8-42-13-66-13-5 0-11 0-16 1l-64 5 54-34c40-25 91-40 141-40 64 0 124 24 174 70 46 44 79 121 78 189 13 11 31 31 38 44l17 37-31-13c1 4 3 7 5 11z"/>
<glyph unicode="&#42;" d="M314 363c19 0 35-8 43-18 13 1 26 7 38 14-5-13-15-25-26-32 15 2 23 5 32 8-4-8-17-22-28-30 3-43-17-98-50-128-37-34-77-47-115-47-36 0-69 11-92 26 4 0 8-1 12-1 33 0 57 11 74 25-25 1-47 17-55 41 3-1 6-1 9-1 5 0 10 1 16 2-23 4-47 28-46 58 6-2 14-5 26-6-25 15-33 53-18 77 26-30 71-60 121-60 0 0 0 0 1 0-5 19 2 46 24 60 11 9 23 12 34 12m100 20l-25-14c-10-6-20-9-28-12-11 11-29 17-47 17-14 0-28-4-40-12-22-15-31-38-31-59-40 5-79 31-100 56l-10 12-9-14c-11-18-12-43-3-62l-6 2 0-17c-1-18 7-34 17-46l-2 0 6-17c7-18 20-34 37-41-14-6-29-10-46-10-4 0-8 0-11 1l-45 4 38-24c28-18 63-28 98-28 45 0 87 17 122 49 32 31 55 85 54 132 9 8 22 21 27 30l12 27-22-10c0 3 2 5 3 8z m-158-383c-141 0-256 115-256 256 0 141 115 256 256 256 141 0 256-115 256-256 0-144-112-256-256-256z m0 495c-132 0-239-107-239-239 0-132 107-239 239-239 134 0 239 105 239 239 0 132-107 239-239 239z"/>
<glyph unicode="&#43;" d="M338 439l0 27c0 25-21 46-46 46l-72 0c-25 0-46-21-46-46l0-26c-17 1-35 1-52 1l-20 0 0 0c-13 0-26 0-38 0l0-15c13 0 26 0 39 0l29-371c2-31 27-55 58-55l142 0c31 0 56 24 60 55l25 368c11 0 22 0 31 0l0 15c-13 0-27 0-44 0-20 0-42 0-66 1z m-149 27c0 17 14 31 31 31l72 0c17 0 31-14 31-31l0-27-89 1c-15 0-30 0-45 0z m187-410c-1-23-21-41-44-41l-142 0c-23 0-41 17-43 40l-29 370 63 0c41 0 81-1 118-1 1 0 1 0 1 0 38 0 72-1 101-1z m-50 327l15-1-13-317-15 1z m-136-318l-13 319 15 0 13-318z m73 0l-15 0 4 317 14 0z"/>
<glyph unicode="&#44;" d="M313 389l0 21c0 18-16 34-34 34l-53 0c-19 0-34-16-34-34l0-19c-13 0-26 0-38 0l-15 0 0 0c-10 0-19 0-28 0l0-11c9 0 19 0 28 0l22-274c1-22 20-40 43-40l104 0c23 0 42 18 44 40l19 272c8 0 16 0 23 0l0 11c-9 0-20 0-33 0-14 0-31 0-48 0z m-110 21c0 12 10 23 23 23l53 0c12 0 23-11 23-23l0-21-66 1c-11 0-22 0-33 1z m137-303c0-17-15-30-32-30l-104 0c-17 0-31 13-32 29l-22 273 47 0c30 0 60 0 87 0 0 0 1 0 1 0 27 0 53-1 74-1z m-36 241l11 0-10-234-11 0z m-101-234l-9 235 11 0 9-234z m55 0l-11 0 2 234 11 0z m-2 398c-141 0-256-115-256-256 0-141 115-256 256-256 144 0 256 112 256 256 0 141-115 256-256 256z m0-495c-132 0-239 107-239 239 0 132 107 239 239 239 132 0 239-107 239-239 0-134-105-239-239-239z"/>
<glyph unicode="&#45;" d="M24 45l5 13c7 20 19 57 22 89-34 35-51 76-51 120 0 110 115 200 256 200 141 0 256-89 256-200 0-111-115-201-256-201-40 0-80 8-115 22-30-23-71-40-104-42z m230 407c-132 0-240-82-240-185 0-41 17-80 49-111l2-3 0-3c-1-30-11-64-19-87 25 5 60 19 86 41l3 2 5-1c35-14 74-22 114-22 131 0 239 82 239 185 1 102-107 184-239 184z"/>
<glyph unicode="&#46;" d="M97 126l4 9c5 15 13 40 15 63-24 24-36 53-36 83 0 77 81 141 179 141 99 0 179-63 179-141 0-77-80-140-179-140-27 0-55 5-80 15-21-16-50-28-73-29z m161 285c-92 0-168-58-168-130 0-28 12-55 34-77l2-2 0-3c-1-21-8-44-14-60 18 3 43 13 60 28l3 2 3-1c25-10 52-15 80-15 92 0 167 57 167 129 1 71-74 129-167 129z m-2-411c-141 0-256 115-256 256 0 141 115 256 256 256 141 0 256-115 256-256 0-144-112-256-256-256z m0 495c-132 0-239-107-239-239 0-132 107-239 239-239 134 0 239 105 239 239 0 132-107 239-239 239z"/>
<glyph unicode="&#47;" d="M252 84c-52 0-95 18-121 47-16 20-24 43-21 61 1 11 8 20 18 27 6 3 15 6 23 6 16 0 30-9 38-23 2-4 5-9 6-13 8-15 13-25 28-31 20-8 43-7 66 3 13 5 18 17 18 24 0 9-4 17-12 21-15 7-34 11-54 16-28 7-60 14-87 32-23 15-38 39-40 67-3 26 7 51 26 69 25 22 65 36 110 36 31 0 63-7 90-19 33-17 48-54 43-78-4-19-20-30-39-30-10 0-19 3-28 10-8 5-12 14-17 21-5 10-11 19-23 24-23 11-57 6-70-7-3-4-5-7-5-10 0-17 23-23 68-33 14-4 30-8 47-12 54-15 85-52 82-99-1-37-28-82-82-96-19-9-42-13-64-13z m-101 126c-6 0-11-2-14-4-6-4-9-9-11-15-2-14 5-32 18-49 22-26 60-42 107-42 20 0 42 3 62 9 46 13 69 51 70 83 3 39-23 68-71 82-17 6-32 9-46 12-46 11-80 19-80 49 0 8 3 16 9 22 18 18 58 24 88 11 16-7 24-20 30-31 4-7 8-13 12-17 5-4 11-6 17-6 12 0 21 7 23 18 4 15-7 45-34 58-24 11-53 18-83 18-40 0-77-12-97-31-16-14-23-34-22-54 1-22 14-42 33-55 24-15 53-23 81-29 22-5 42-10 59-18 14-6 21-20 20-36 0-17-11-33-28-39-27-11-53-13-79-4-21 8-29 24-38 41-1 4-4 8-6 11-1 11-10 16-20 16z m210-210c-22 0-43 5-63 14-14-3-28-4-42-4-133 0-241 108-241 242 0 15 1 31 5 47-12 21-18 44-18 68 0 80 66 145 146 145 27 0 52-8 75-20 11 1 23 2 34 2 134 0 242-108 242-241 0-15-2-31-4-45 10-20 15-40 15-63-2-80-69-145-149-145z m-62 32l3-2c18-8 38-13 58-13 71 0 130 57 130 128 0 20-5 40-14 58l-1 3 0 2c2 14 3 30 3 45 0 124-101 225-225 225-11 0-22-2-34-3l-2 0-3 1c-20 13-44 19-69 19-71 0-129-57-129-128 0-21 6-44 16-63l2-3-2-2c-2-16-5-31-5-46 0-125 102-225 225-225 14 0 28 1 42 4z"/>
<glyph unicode="&#58;" d="M259 146c-34 0-63 12-80 31-11 14-16 29-14 41 1 8 5 13 12 18 4 2 10 4 15 4 11 0 20-6 25-15 2-3 4-6 4-9 5-10 9-17 19-21 13-5 29-4 44 3 8 3 12 11 12 16 0 6-3 11-8 13-10 5-23 8-36 11-19 4-40 10-58 21-15 11-25 27-27 45-1 17 5 34 18 46 16 14 43 23 73 23 21 0 42-4 60-12 22-11 32-36 28-52-2-12-13-20-26-20-7 0-12 2-18 7-5 3-8 9-11 14-4 7-8 13-16 16-15 7-38 4-46-5-3-2-3-4-3-7 0-11 15-15 44-22 10-2 21-5 32-7 36-10 56-35 55-66-1-25-19-55-55-64-13-6-28-9-43-9z m-67 84c-4 0-7-1-10-3-3-2-5-6-6-10-2-9 3-21 12-32 14-18 39-28 71-28 13 0 27 2 41 6 30 9 46 34 46 55 2 26-15 46-47 55-11 3-21 6-30 7-31 8-54 13-54 33 0 6 2 11 6 15 12 12 39 16 59 7 11-5 16-13 20-21 2-4 5-8 8-11 3-2 7-4 11-4 8 0 14 5 16 12 2 10-5 30-23 39-16 7-36 12-55 12-27 0-52-8-65-21-10-9-15-22-15-36 1-14 10-28 22-36 16-10 36-16 54-20 15-3 28-7 39-12 10-4 15-13 14-23 0-12-8-22-19-26-17-8-35-9-52-3-14 5-20 16-25 27-1 3-3 5-5 8-1 6-6 10-13 10z m140-140c-15 0-29 4-42 10-9-2-19-3-28-3-89 0-161 72-161 161 0 10 1 21 4 31-8 14-12 30-12 46 0 53 44 96 97 96 18 0 35-5 50-14 8 1 15 2 23 2 88 0 160-72 160-160 0-11-1-21-2-30 7-14 10-27 10-42-2-54-46-97-99-97z m-41 22l1-1c12-6 26-10 39-10 48 0 86 38 86 86 0 13-3 27-9 39l-1 1 0 2c2 9 3 19 3 30 0 82-68 149-150 149-7 0-15-1-23-2l-1 0-2 1c-13 9-30 13-46 13-47 0-86-38-86-85 0-15 4-30 11-43l1-1-1-2c-1-10-3-20-3-30 0-83 67-150 149-150 10 0 19 1 28 3z m-35-112c-141 0-256 115-256 256 0 141 115 256 256 256 141 0 256-115 256-256-1-144-113-256-256-256z m0 495c-132 0-239-107-239-239 0-132 107-239 239-239 134 0 239 105 239 239-1 132-107 239-239 239z"/>
<glyph unicode="&#59;" d="M280 60c-10 0-21 8-21 23 0 11 0 31 0 54l0 45-1 0c0-16 0-31 0-46 0-20 0-40 0-54 0-15-10-22-20-22-10 0-21 8-21 23l0 99c-14 0-28 0-40 0l-7 0 2 8c6 15 14 37 21 60-4-7-10-11-16-11-5 0-11 3-13 7-4 6-5 13-2 22 2 4 6 16 10 29 9 24 19 54 22 63 7 21 18 29 40 29 5 0 9 0 14 0 10 0 20 0 38 0l0 0c19 0 32-10 38-30 4-10 10-27 16-46 6-15 11-30 16-44 3-10 2-18-2-24-3-4-8-7-13-7-5 0-11 3-17 10 4-10 7-19 11-30l13-36-8 0c-12 0-27 0-41 0 0-13 0-27 0-40 0-21 0-41 0-57 1-17-9-25-19-25z m-32 133l23 0 0-55c0-23 0-43 0-54 0-9 4-12 10-12 4 0 9 4 9 13 0 16 0 36 0 57 0 15 0 31 0 46l0 6 6 0c13 0 26 0 39 0l-8 21c-20 58-32 89-40 112-1 5-1 9 1 13 2 2 4 4 8 4 4 0 9-3 12-10 1-4 3-10 5-16 6-17 13-41 19-57 3-8 8-10 11-10 2 0 3 1 4 2 2 3 2 8 0 14-5 14-10 30-15 44-7 19-13 36-17 46-5 16-13 23-27 23l-1 0c-18 0-28 0-37 0-4 0-9 0-14 0-16 0-24-5-29-22-3-9-14-39-22-62-5-14-8-26-10-30-2-5-2-9 0-12 2-4 9-3 13 8 8 22 19 52 26 71 2 7 7 11 12 11 3 0 6-2 7-4 3-4 3-8 1-12-2-8-11-31-19-57-10-26-19-55-27-76 11 0 24 0 38 0l6 0 0-110c0-7 5-11 10-11 4 0 8 2 8 10 0 15 0 33 0 55 0 16 0 34 0 50z m12 249c11 0 20-9 20-20 0-10-10-19-20-19-10 0-19 9-19 19 0 11 8 20 19 20m0 11c-17 0-31-14-31-31 0-17 13-32 31-32 18 0 31 14 31 32 0 17-14 31-31 31z m-4-453c-141 0-256 115-256 256 0 141 115 256 256 256 141 0 256-115 256-256 0-144-112-256-256-256z m0 495c-132 0-239-107-239-239 0-132 107-239 239-239 134 0 239 105 239 239 0 132-107 239-239 239z"/>
<glyph unicode="&#60;" d="M418 346l-19 34 1-7-14 14c-34 33-78 51-126 51-61 0-119-32-153-83l-6-9 32 0c6 0 12 0 20 1 6 1 10 1 13 1 5 0 6 0 6 0 0 0 0 0 0-1 0-1-2-2-11-2-4 0-7-1-11-1l-6-1 1-7c10-28 65-190 65-192l5-15 45 133-1 2c-9 27-25 73-28 77l-2 2-2 0c-3 0-6 1-10 1-3 1-9 1-10 2 0 0 0 2 3 2 5 0 12-1 19-1 8 0 16-1 25-1 15 0 27 0 37 1 5 1 9 1 11 1 1 0 3 0 3-2 0 0 0 0-1 0-7-1-13-2-19-2l-5 0-1-4c-2-5 1-12 14-49 2-4 3-6 4-8l51-153 33 108c5 12 5 37-2 54-3 8-8 16-12 24-6 10-11 20-14 30-3 13 2 24 14 32 3 1 8 1 13 0l21-8 7-29c4-20 2-45-9-73l-62-178 13 7c56 33 92 94 92 159 0 31-9 63-24 90z m-57 42c-16-10-23-26-19-43 3-11 9-22 15-33 5-8 9-15 12-23 6-14 6-36 2-46l-23-75-40 120c-1 1-2 4-4 9-3 8-11 27-13 37 5 0 11 1 16 1 6 1 11 6 10 13-1 6-5 12-15 12-2 0-6-1-12-1-9 0-22-1-36-1-9 0-17 0-25 1-7 1-14 1-19 1-9 0-15-5-15-14 0-11 11-11 20-12 3 0 5-1 7-1 4-9 15-42 26-71l-33-98c-13 38-47 137-58 170 1 0 2 0 3 0 10 0 22 1 22 12 0 2 1 6-2 10-3 3-9 4-14 4-5 0-9 0-16-1-6-1-13-1-18-1l-10 0c32 44 82 70 137 70 39 0 76-13 107-38-2-1-4-1-5-2z m-4-273l52 149c7 16 11 33 12 48 7-18 10-37 9-57 0-56-27-108-73-140z m-243 179c-4 12-9 25-13 35l-6 11-5-11c-10-23-15-49-15-74 0-70 41-134 104-165l13-6-75 201z m-26-38c0 19 2 38 9 57 3-7 5-15 8-22l67-183c-51 31-84 87-84 148z m113-174l6-2c17-5 34-7 52-7 21 0 41 3 60 11l5 1-63 170z m110 9c-30-9-63-10-95-2l47 132z m-55 421c-141 0-256-115-256-256 0-141 115-256 256-256 144 0 256 112 256 256 0 141-115 256-256 256z m0-495c-132 0-239 107-239 239 0 132 107 239 239 239 132 0 239-107 239-239 0-134-105-239-239-239z m3 444c-114 0-207-93-207-206 0-113 92-206 207-206 114 0 206 93 206 206 0 113-92 206-206 206z m0-401c-108 0-196 88-196 195 0 107 88 195 196 195 108 0 195-88 195-195 0-107-88-195-195-195z"/>
<glyph unicode="&#61;" d="M454 368l-24 43 2-8-18 17c-42 41-97 63-156 63-76 0-148-39-190-103l-7-11 39 0c7 0 15 0 25 1 7 1 12 1 17 1 5 0 7 0 7 0 0 0 0 0 0-1 0-2-3-3-15-3-4 0-8-1-12-1l-9-1 2-8c12-36 80-236 81-238l6-19 56 164-1 2c-11 34-31 92-36 97l-2 2-2 0c-4 0-8 1-12 1-5 1-12 1-13 2 0 1 0 3 4 3 6 0 15-1 23-1 10 0 20-1 32-1 18 0 33 0 45 1 6 1 11 1 15 1 1 0 3 0 3-2 0 0 0-1-1-1-9-1-17-2-24-2l-7 0-1-5c-2-5 1-15 18-60 2-5 3-8 4-10l64-190 41 134c6 15 6 46-2 67-4 10-10 20-16 30-7 12-13 25-16 36-5 17 2 31 16 40 4 2 11 2 17 0l26-9 9-36c5-25 2-57-12-91l-76-222 15 10c71 41 115 116 115 197 0 39-11 78-30 111z m-71 53c-20-13-28-32-23-54 3-13 10-27 19-41 5-9 10-19 14-28 8-17 8-44 3-57l-29-93-50 149c-1 1-2 5-4 10-5 11-14 35-17 47 6 0 14 1 20 2 7 1 13 7 12 15-1 8-6 15-17 15-4 0-9-1-16-1-12 0-27-1-44-1-12 0-22 0-32 1-8 1-17 1-24 1-10 0-18-6-18-17 0-13 14-14 25-15 4 0 6-1 9-1 4-11 19-52 31-89l-41-121c-15 47-57 170-71 211 1 0 2 0 3 0 13 0 28 1 29 15 0 2 1 8-4 12-4 4-11 5-17 5-6 0-11 0-19-1-9-1-17-1-23-1l-13 0c40 55 103 86 171 86 48 0 94-16 132-46-2-1-4-2-6-3z m-4-339l64 184c8 21 13 41 14 60 9-22 13-46 12-70 0-69-34-134-90-174z m-302 222c-6 15-12 32-17 43l-6 14-7-14c-12-28-19-60-19-91 0-87 51-167 129-205l16-7-92 249z m-33-47c0 24 3 47 12 70 3-8 6-17 9-26l84-228c-64 38-105 109-105 184z m141-216l7-2c21-6 42-10 64-10 26 0 51 5 76 14l6 2-79 211z m136 11c-38-11-79-12-117-3l57 165z m-65 460c-141 0-256-115-256-256 0-141 114-256 256-256 142 0 256 115 256 256 0 141-114 256-256 256z m0-498c-133 0-242 109-242 242 0 133 109 242 242 242 134 0 242-109 242-242 0-133-109-242-242-242z"/>
<glyph unicode="&#62;" d="M257 63c-53 0-103 21-140 60l-3 2 2 3c24 62 74 127 141 184l3 3 4-3c38-34 108-103 136-181l0-3-2-3c-36-40-87-62-141-62z m-129 65c34-35 80-54 129-54 50 0 97 21 132 56-21 54-66 114-129 170-62-54-109-115-132-172z m279 6l-2 13c-13 68-52 136-108 188l-5 5 5 4c31 22 61 40 87 51l4 1 2-2c38-37 59-86 59-138 0-40-12-78-35-111z m-98 205c52-50 88-113 103-177 17 28 26 60 26 93 0 48-19 93-53 128-23-10-49-26-76-44z m-203-204l-8 11c-23 32-35 70-35 110 0 55 24 107 65 144l3 2 3-2c27-12 56-31 87-53l5-4-5-4c-59-52-98-119-114-190z m27 254c-37-35-58-83-58-134 0-33 9-64 26-92 16 67 54 130 109 179-28 19-54 35-77 47z m126-22l-4 2c-34 23-67 37-97 41l-16 1 13 9c31 18 66 28 100 28 36 0 70-10 101-28l12-8-14-2c-30-6-63-21-93-41z m-83 51c26-6 55-18 83-38 26 17 54 30 80 37-51 26-113 26-163 1z m80-418c-141 0-256 115-256 256 0 141 115 256 256 256 141 0 256-115 256-256 0-144-112-256-256-256z m0 495c-132 0-239-107-239-239 0-132 107-239 239-239 134 0 239 105 239 239 0 132-107 239-239 239z"/>
<glyph unicode="&#63;" d="M257 0c-71 0-137 28-186 80l-4 3 3 5c32 82 98 168 187 243l5 5 4-5c52-45 144-137 181-240l1-5-3-3c-48-53-116-83-188-83z m-172 86c46-46 107-71 172-71 66 0 129 28 175 75-27 72-87 151-170 226-83-72-145-153-177-230z m372 9l-3 17c-17 90-69 181-143 251l-7 5 7 6c40 29 81 53 116 67l4 3 4-4c50-48 77-113 77-183 0-53-16-103-46-147z m-130 272c68-66 117-150 137-235 22 38 33 80 33 124 0 64-24 124-69 170-31-14-65-34-101-59z m-271-270l-10 14c-30 43-46 93-46 146 0 73 31 143 86 191l4 3 4-2c35-17 74-41 115-71l7-5-7-6c-78-68-130-158-151-252z m37 336c-49-46-77-110-77-177 0-44 11-85 33-122 23 88 73 173 145 238-36 24-70 46-101 61z m166-29l-4 4c-45 30-89 49-129 53l-22 3 18 11c41 25 87 37 133 37 47 0 93-13 133-37l16-10-18-4c-39-7-83-26-123-53z m-110 69c35-8 73-25 110-51 35 23 72 39 107 50-67 33-149 33-217 1z"/>
<glyph unicode="&#64;" d="M110 153c-2 0-4 0-6 1-25 4-27 26-26 46 6 130 45 196 79 205 10 2 20 3 30 3 17 0 31-3 45-6 9-2 17-3 23-3 20 0 32 3 44 6 10 2 20 5 32 5 4 0 8 0 12-1 26-3 52-34 68-80 20-54 24-135 11-161-3-5-6-8-11-9-4-1-7-2-11-2-18 0-28 12-40 25-10 11-20 22-36 28-10 5-39 8-72 8-33 0-60-3-69-8-17-8-28-21-38-33-11-13-21-24-35-24z m77 244c-10 0-19-1-27-3-32-8-66-77-71-195-2-27 5-33 17-35 12-3 21 8 32 20 10 12 22 26 41 36 15 7 60 8 74 8 28 0 62-2 77-8 17-8 29-21 39-32 13-14 23-24 41-19 1 0 1 1 3 4 11 21 9 97-10 152-14 42-38 70-60 73-3 1-8 1-11 1-11 0-19-3-30-4-12-4-26-7-46-7-8 0-16 1-26 4-13 3-27 5-43 5z m-32-127c-20 0-36 16-36 36 0 19 16 35 36 35 19 0 35-16 35-35 1-20-15-36-35-36z m0 61c-14 0-26-11-26-25 0-14 11-26 26-26 13 0 25 11 25 26 0 14-11 25-25 25z m175-12c-11 0-21 9-21 21 0 11 10 21 21 21 12 0 21-10 21-21 0-12-10-21-21-21z m0 31c-6 0-10-4-10-10 0-6 4-10 10-10 6 0 10 4 10 10 0 6-5 10-10 10z m0-97c-11 0-21 9-21 21 0 12 10 21 21 21 12 0 21-9 21-21 0-12-10-21-21-21z m0 30c-6 0-10-4-10-10 0-6 4-10 10-10 6 0 10 4 10 10 0 6-5 10-10 10z m33 3c-12 0-21 9-21 21 0 12 9 21 21 21 12 0 21-9 21-21 0-12-10-21-21-21z m0 31c-6 0-10-4-10-10 0-6 4-10 10-10 6 0 10 4 10 10 0 6-5 10-10 10z m-66-31c-12 0-22 9-22 21 0 12 10 21 22 21 11 0 21-9 21-21 0-12-10-21-21-21z m0 31c-6 0-11-4-11-10 0-6 5-10 11-10 5 0 10 4 10 10 0 6-5 10-10 10z m-41-317c-141 0-256 115-256 256 0 141 115 256 256 256 141 0 256-115 256-256 0-144-112-256-256-256z m0 495c-132 0-239-107-239-239 0-132 107-239 239-239 134 0 239 105 239 239 0 132-107 239-239 239z"/>
<glyph unicode="&#91;" d="M51 73c-2 0-4 0-8 1-35 6-39 38-37 67 8 184 63 279 113 291 14 3 27 4 42 4 24 0 44-4 64-8 13-2 25-5 33-5 28 0 46 5 63 9 14 3 29 7 46 7 6 0 10 0 16-1 38-5 75-48 98-115 28-77 34-191 14-228-3-7-8-12-14-13-6-2-11-3-17-3-25 0-40 17-57 35-14 16-28 31-50 41-14 6-57 11-103 11-47 0-86-4-98-11-25-12-41-30-54-47-16-19-30-35-51-35z m110 348c-13 0-27-1-39-5-44-11-93-109-101-277-2-38 8-48 26-50 16-4 28 11 44 29 15 16 31 36 59 50 22 11 85 12 105 12 39 0 89-3 109-12 25-11 42-29 57-44 18-21 32-35 57-28 2 0 3 1 5 6 16 30 12 138-14 217-21 59-54 99-86 103-4 1-10 1-15 1-16 0-28-3-42-6-18-5-38-9-66-9-11 0-23 2-38 6-18 3-38 7-61 7z m-46-181c-28 0-50 23-50 51 0 28 22 50 50 50 28 0 51-22 51-50 1-28-22-51-51-51z m0 87c-19 0-36-16-36-36 0-19 16-36 36-36 19 0 36 15 36 36 0 20-15 36-36 36z m250-18c-16 0-30 13-30 30 0 17 14 30 30 30 17 0 30-13 30-30 0-17-14-30-30-30z m0 44c-8 0-14-6-14-14 0-8 6-14 14-14 9 0 15 6 15 14 0 8-7 14-15 14z m0-138c-16 0-30 13-30 30 0 17 14 30 30 30 17 0 30-13 30-30 0-17-14-30-30-30z m0 43c-8 0-14-6-14-14 0-8 6-14 14-14 9 0 15 6 15 14 0 8-7 14-15 14z m47 4c-17 0-30 13-30 30 0 17 13 30 30 30 17 0 30-13 30-30 0-17-14-30-30-30z m0 45c-8 0-14-6-14-15 0-8 6-14 14-14 9 0 15 6 15 14 0 9-7 15-15 15z m-95-45c-17 0-30 13-30 30 0 17 13 30 30 30 17 0 30-13 30-30 0-17-13-30-30-30z m0 45c-8 0-14-6-14-15 0-8 6-14 14-14 9 0 15 6 15 14 0 9-6 15-15 15z"/>
</font>
</defs>
</svg>
